<?xml version="1.0" encoding="utf-8"?>
<!-- Generator: Adobe Illustrator 16.0.0, SVG Export Plug-In . SVG Version: 6.00 Build 0)  -->
<!DOCTYPE svg PUBLIC "-//W3C//DTD SVG 1.1//EN" "http://www.w3.org/Graphics/SVG/1.1/DTD/svg11.dtd">
<svg version="1.1" id="Laag_1" xmlns="http://www.w3.org/2000/svg" xmlns:xlink="http://www.w3.org/1999/xlink" x="0px" y="0px"
	 width="2433.95px" height="1259px" viewBox="0 0 2433.95 1259" enable-background="new 0 0 2433.95 1259" xml:space="preserve">
<g>
	<defs>
		<rect id="SVGID_1_" width="2433.95" height="1259"/>
	</defs>
	<clipPath id="SVGID_2_">
		<use xlink:href="#SVGID_1_"  overflow="visible"/>
	</clipPath>
	<rect clip-path="url(#SVGID_2_)" fill="#BBFFEC" width="2433.954" height="1259"/>
	<g clip-path="url(#SVGID_2_)">
		<defs>
			<rect id="SVGID_3_" width="2433.954" height="1259"/>
		</defs>
		<clipPath id="SVGID_4_">
			<use xlink:href="#SVGID_3_"  overflow="visible"/>
		</clipPath>
		<defs>
			<filter id="Adobe_OpacityMaskFilter" filterUnits="userSpaceOnUse" x="596.526" y="1015.941" width="1345.067" height="74.014">
				<feFlood  style="flood-color:white;flood-opacity:1" result="back"/>
				<feBlend  in="SourceGraphic" in2="back" mode="normal"/>
			</filter>
		</defs>
		<mask maskUnits="userSpaceOnUse" x="596.526" y="1015.941" width="1345.067" height="74.014" id="SVGID_5_">
			<g filter="url(#Adobe_OpacityMaskFilter)">
				<g enable-background="new    ">
					<g>
						<defs>
							<rect id="SVGID_6_" x="594" y="1013" width="1350" height="79"/>
						</defs>
						<clipPath id="SVGID_7_" clip-path="url(#SVGID_4_)">
							<use xlink:href="#SVGID_6_"  overflow="visible"/>
						</clipPath>
						<g clip-path="url(#SVGID_7_)">
							<image overflow="visible" width="1350" height="79" xlink:href="42FF9964.jpg"  transform="matrix(1 0 0 1 594 1013)">
							</image>
						</g>
					</g>
				</g>
			</g>
		</mask>
		<g clip-path="url(#SVGID_4_)" mask="url(#SVGID_5_)">
			<g>
				<defs>
					<rect id="SVGID_8_" x="596.526" y="1015.942" width="1345.064" height="74.013"/>
				</defs>
				<clipPath id="SVGID_9_">
					<use xlink:href="#SVGID_8_"  overflow="visible"/>
				</clipPath>
				<path clip-path="url(#SVGID_9_)" fill="#3F3F3F" d="M1941.593,1052.948c0,20.438-301.104,37.007-672.533,37.007
					c-371.43,0-672.534-16.569-672.534-37.007c0-20.438,301.104-37.007,672.534-37.007
					C1640.488,1015.941,1941.593,1032.51,1941.593,1052.948"/>
			</g>
		</g>
		<path clip-path="url(#SVGID_4_)" fill="#AC3C33" d="M1295.101,259.716l-26.041,98.958l104.164-20.834
			C1373.224,294.694,1338.248,259.716,1295.101,259.716"/>
		<path clip-path="url(#SVGID_4_)" fill="#CC726D" d="M1290.359,277.733l-21.3,80.941l85.198-17.041
			C1354.258,306.342,1325.651,277.733,1290.359,277.733"/>
		<path clip-path="url(#SVGID_4_)" fill="#C1BDAB" d="M1737.801,674.879c0-20.718-8.232-40.589-22.883-55.24l-133.364-99.841
			l-57.832-134.941c-12.309-28.727-40.557-47.35-71.808-47.35h-156.812L1164.896,590.44l130.206,312.494h403.638
			c21.572,0,39.061-17.49,39.061-39.061V674.879z"/>
		<path clip-path="url(#SVGID_4_)" fill="#D5D2BD" d="M1481.739,706.733c6.675,4.833,14.705,7.432,22.946,7.425l24.782-0.023
			c54.264,0,103.234,23.021,137.695,59.798c11.329,12.09,31.572,4.178,31.572-12.39v-86.662c0-9.655-3.479-18.775-9.847-25.93
			l-139.122-104.154l-61.952-144.554c-6.156-14.365-20.278-23.678-35.905-23.678h-106.675c-14.487,0-26.19,11.825-26.041,26.313
			l1.671,161.312c0.173,16.51,8.162,31.959,21.533,41.646L1481.739,706.733z"/>
		<path clip-path="url(#SVGID_4_)" fill="#92BCBC" d="M1500.116,528.098l-41.437-96.686c-4.104-9.574-13.517-15.783-23.934-15.783
			h-35.48c-14.383,0-26.043,11.659-26.043,26.041v44.603l102.957,78.123C1494.874,564.399,1507.48,545.282,1500.116,528.098"/>
		<path clip-path="url(#SVGID_4_)" fill="#ACCCC7" d="M1373.224,457.987v80.367c0,14.382,11.659,26.041,26.042,26.041h76.914
			c10.696,0,19.379-6.269,23.488-14.845L1373.224,457.987z"/>
		<path clip-path="url(#SVGID_4_)" fill="#DBD9C7" d="M1295.101,245.393c0-10.787-8.744-19.53-19.53-19.53H715.686
			c-10.786,0-19.53,8.743-19.53,19.53v124.723l208.329,350.527l390.618,83.19V245.393H1295.101z"/>
		<path clip-path="url(#SVGID_4_)" fill="#E7E4CD" d="M696.153,370.118v493.753c0,21.572,17.49,39.061,39.061,39.061h559.884
			v-99.098L696.153,370.118z"/>
		<path clip-path="url(#SVGID_4_)" fill="#C1BDAB" d="M956.565,714.135c-104.105,0-188.799,84.693-188.799,188.799h377.596
			C1145.364,798.828,1060.671,714.135,956.565,714.135"/>
		<polygon clip-path="url(#SVGID_4_)" fill="#AB5034" points="1295.101,694.602 1295.101,538.357 928.485,538.357 956.564,642.52 
			1144.255,694.602 		"/>
		<polygon clip-path="url(#SVGID_4_)" fill="#BD7155" points="696.153,694.602 1144.256,694.602 928.486,538.357 696.153,538.357 		
			"/>
		<path clip-path="url(#SVGID_4_)" fill="#AB5034" d="M1047.71,343.047h-13.02v-13.02c0-14.381-11.659-26.041-26.041-26.041h-26.041
			c-14.381,0-26.041,11.66-26.041,26.041v13.02h-13.019c-14.382,0-26.041,11.659-26.041,26.041v26.041
			c0,14.383,11.659,26.042,26.041,26.042h13.019v13.02c0,14.381,11.66,26.041,26.041,26.041h26.041
			c14.382,0,26.041-11.66,26.041-26.041v-13.02h13.02c14.383,0,26.042-11.659,26.042-26.042v-26.041
			C1073.752,354.706,1062.093,343.047,1047.71,343.047"/>
		<path clip-path="url(#SVGID_4_)" fill="#7F8383" d="M1607.595,902.932h130.206c21.573,0,39.061-17.49,39.061-39.061l-91.144-13.02
			l-78.123,13.02V902.932z"/>
		<path clip-path="url(#SVGID_4_)" fill="#91928F" d="M1607.595,824.808v39.061h169.267v-13.02c0-14.382-11.66-26.041-26.041-26.041
			H1607.595z"/>
		<path clip-path="url(#SVGID_4_)" fill="#7F8383" d="M696.153,902.932h78.124v-39.061l-52.083-13.02l-65.102,13.02
			C657.092,885.443,674.582,902.932,696.153,902.932"/>
		<path clip-path="url(#SVGID_4_)" fill="#A4A49E" d="M735.216,824.808h-39.063c-21.573,0-39.061,17.49-39.061,39.061h117.185
			C774.277,842.298,756.789,824.808,735.216,824.808"/>
		<path clip-path="url(#SVGID_4_)" fill="#4E565A" d="M1529.471,1033.138c-71.796,0-130.205-58.41-130.205-130.206
			c0-71.797,58.409-130.206,130.205-130.206c71.797,0,130.206,58.409,130.206,130.206
			C1659.677,974.728,1601.266,1033.138,1529.471,1033.138"/>
		<path clip-path="url(#SVGID_4_)" fill="#989487" d="M1529.471,850.849c28.765,0,52.083,23.318,52.083,52.083
			c0,28.764-23.318,52.082-52.083,52.082c-28.764,0-52.082-23.318-52.082-52.082
			C1477.389,874.167,1500.707,850.849,1529.471,850.849"/>
		<path clip-path="url(#SVGID_4_)" fill="#ADA999" d="M1516.449,866.474c14.383,0,26.041,11.658,26.041,26.041
			c0,14.382-11.658,26.041-26.041,26.041c-14.382,0-26.041-11.659-26.041-26.041
			C1490.408,878.132,1502.067,866.474,1516.449,866.474"/>
		<path clip-path="url(#SVGID_4_)" fill="#5F6568" d="M1529.471,772.726c-71.796,0-130.205,58.409-130.205,130.206
			c0,13.426,2.045,26.382,5.835,38.577c18.795-2.823,33.226-18.992,33.226-38.577c0-50.257,40.887-91.143,91.143-91.143
			c19.585,0,35.754-14.431,38.58-33.227C1555.854,774.771,1542.897,772.726,1529.471,772.726"/>
		<path clip-path="url(#SVGID_4_)" fill="#3E474C" d="M1653.84,864.354c-18.796,2.824-33.227,18.993-33.227,38.578
			c0,50.256-40.886,91.143-91.143,91.143c-19.585,0-35.753,14.431-38.579,33.226c12.197,3.793,25.153,5.835,38.58,5.835
			c71.796,0,130.205-58.409,130.205-130.206C1659.677,889.505,1657.632,876.549,1653.84,864.354"/>
		<path clip-path="url(#SVGID_4_)" fill="#4E565A" d="M956.565,1033.138c-71.796,0-130.206-58.41-130.206-130.206
			c0-71.797,58.41-130.206,130.206-130.206s130.207,58.409,130.207,130.206C1086.772,974.728,1028.361,1033.138,956.565,1033.138"/>
		<path clip-path="url(#SVGID_4_)" fill="#989487" d="M956.565,850.849c28.765,0,52.083,23.318,52.083,52.083
			c0,28.764-23.318,52.082-52.083,52.082c-28.764,0-52.082-23.318-52.082-52.082C904.483,874.167,927.801,850.849,956.565,850.849"
			/>
		<path clip-path="url(#SVGID_4_)" fill="#ADA999" d="M943.546,866.474c14.382,0,26.041,11.658,26.041,26.041
			c0,14.382-11.659,26.041-26.041,26.041s-26.042-11.659-26.042-26.041C917.504,878.132,929.164,866.474,943.546,866.474"/>
		<path clip-path="url(#SVGID_4_)" fill="#5F6568" d="M956.565,772.726c-71.796,0-130.206,58.409-130.206,130.206
			c0,13.426,2.045,26.382,5.835,38.577c18.796-2.823,33.226-18.992,33.226-38.577c0-50.257,40.887-91.143,91.143-91.143
			c19.585,0,35.754-14.431,38.58-33.227C982.947,774.771,969.991,772.726,956.565,772.726"/>
		<path clip-path="url(#SVGID_4_)" fill="#3E474C" d="M1080.936,864.354c-18.795,2.824-33.226,18.993-33.226,38.578
			c0,50.256-40.886,91.143-91.142,91.143c-19.585,0-35.754,14.431-38.58,33.226c12.198,3.793,25.154,5.835,38.58,5.835
			c71.796,0,130.206-58.409,130.206-130.206C1086.771,889.505,1084.727,876.549,1080.936,864.354"/>
		
			<line clip-path="url(#SVGID_4_)" fill="none" stroke="#7C6862" stroke-width="0.75" stroke-miterlimit="10" x1="657.093" y1="376.565" x2="477.325" y2="376.565"/>
		
			<line clip-path="url(#SVGID_4_)" fill="none" stroke="#7C6862" stroke-width="0.75" stroke-miterlimit="10" x1="663.398" y1="445.293" x2="477.325" y2="445.293"/>
		
			<line clip-path="url(#SVGID_4_)" fill="none" stroke="#7C6862" stroke-width="0.75" stroke-miterlimit="10" x1="620.522" y1="538.357" x2="525.202" y2="538.357"/>
		
			<line clip-path="url(#SVGID_4_)" fill="none" stroke="#7C6862" stroke-width="0.75" stroke-miterlimit="10" x1="615.737" y1="571.396" x2="490.591" y2="571.396"/>
		
			<line clip-path="url(#SVGID_4_)" fill="none" stroke="#7C6862" stroke-width="0.75" stroke-miterlimit="10" x1="627.086" y1="319.19" x2="531.765" y2="319.19"/>
		
			<line clip-path="url(#SVGID_4_)" fill="none" stroke="#7C6862" stroke-width="0.75" stroke-miterlimit="10" x1="620.522" y1="483.124" x2="490.591" y2="483.124"/>
		
			<line clip-path="url(#SVGID_4_)" fill="none" stroke="#7C6862" stroke-width="0.75" stroke-miterlimit="10" x1="620.522" y1="616.479" x2="503.857" y2="616.479"/>
		
			<line clip-path="url(#SVGID_4_)" fill="none" stroke="#7C6862" stroke-width="0.75" stroke-miterlimit="10" x1="609.432" y1="694.602" x2="514.109" y2="694.602"/>
		<path clip-path="url(#SVGID_4_)" fill="#AC3C33" d="M1362.588,275.051L1362.588,275.051c1.122,1.007,2.864,0.913,3.871-0.21
			l17.611-19.632c1.007-1.123,0.912-2.865-0.211-3.872c-1.123-1.006-2.863-0.912-3.871,0.211l-17.61,19.632
			C1361.371,272.302,1361.466,274.044,1362.588,275.051"/>
		<path clip-path="url(#SVGID_4_)" fill="#AC3C33" d="M1370.974,296.333L1370.974,296.333c0.754,1.306,2.438,1.757,3.744,1.003
			l22.841-13.187c1.306-0.754,1.757-2.439,1.004-3.745c-0.754-1.305-2.439-1.757-3.745-1.003l-22.841,13.187
			C1370.671,293.342,1370.22,295.027,1370.974,296.333"/>
		<path clip-path="url(#SVGID_4_)" fill="#AC3C33" d="M1336.797,262.992L1336.797,262.992c1.396,0.57,3.004-0.106,3.574-1.502
			l9.966-24.418c0.569-1.396-0.106-3.005-1.502-3.575c-1.396-0.569-3.005,0.107-3.574,1.503l-9.966,24.418
			C1334.725,260.814,1335.4,262.422,1336.797,262.992"/>
	</g>
</g>
</svg>
