<?xml version="1.0" encoding="utf-8"?>
<!-- Generator: Adobe Illustrator 16.0.0, SVG Export Plug-In . SVG Version: 6.00 Build 0)  -->
<!DOCTYPE svg PUBLIC "-//W3C//DTD SVG 1.1//EN" "http://www.w3.org/Graphics/SVG/1.1/DTD/svg11.dtd">
<svg version="1.1" id="Laag_1" xmlns="http://www.w3.org/2000/svg" xmlns:xlink="http://www.w3.org/1999/xlink" x="0px" y="0px"
	 width="2433.95px" height="1259px" viewBox="0 0 2433.95 1259" enable-background="new 0 0 2433.95 1259" xml:space="preserve">
<g>
	<defs>
		<rect id="SVGID_1_" width="2433.95" height="1259"/>
	</defs>
	<clipPath id="SVGID_2_">
		<use xlink:href="#SVGID_1_"  overflow="visible"/>
	</clipPath>
	<rect y="1216" clip-path="url(#SVGID_2_)" fill="#5D8C7C" width="2433.954" height="43"/>
	<rect clip-path="url(#SVGID_2_)" fill="#A7CEBD" width="2433.954" height="1216"/>
	<rect x="891.031" y="92.773" clip-path="url(#SVGID_2_)" fill="#7DAA94" width="454" height="689.059"/>
	<rect x="907.245" y="117.383" clip-path="url(#SVGID_2_)" fill="#C6E5E2" width="421.571" height="639.84"/>
	<polyline clip-path="url(#SVGID_2_)" fill="#F5F7F7" points="1133.241,362.051 1329.031,524.115 1329.031,398.135 
		1133.241,241.736 	"/>
	<polyline clip-path="url(#SVGID_2_)" fill="#F5F7F7" points="1101.813,464.974 907.03,309.379 907.03,385.161 1101.813,546.392 	
		"/>
	<polyline clip-path="url(#SVGID_2_)" fill="#F5F7F7" points="1101.813,626.83 907.03,467.041 907.03,443.391 1101.813,602.497 	"/>
	<polygon clip-path="url(#SVGID_2_)" fill="#7DAA94" points="1133.031,468.47 1133.031,757.803 1102.031,757.803 1102.031,115.803 
		1133.031,115.803 	"/>
	<rect x="1845.438" y="92.773" clip-path="url(#SVGID_2_)" fill="#7DAA94" width="454" height="689.059"/>
	<rect x="1861.652" y="117.383" clip-path="url(#SVGID_2_)" fill="#C6E5E2" width="421.57" height="639.84"/>
	<polyline clip-path="url(#SVGID_2_)" fill="#F5F7F7" points="2087.646,362.051 2283.437,524.115 2283.437,398.135 
		2087.646,241.736 	"/>
	<polyline clip-path="url(#SVGID_2_)" fill="#F5F7F7" points="2056.219,464.974 1861.437,309.379 1861.437,385.161 
		2056.219,546.392 	"/>
	<polyline clip-path="url(#SVGID_2_)" fill="#F5F7F7" points="2056.219,626.83 1861.437,467.041 1861.437,443.391 2056.219,602.497 
			"/>
	<polygon clip-path="url(#SVGID_2_)" fill="#7DAA94" points="2087.437,468.47 2087.437,757.803 2056.437,757.803 2056.437,115.803 
		2087.437,115.803 	"/>
	<rect x="79.955" y="205.061" clip-path="url(#SVGID_2_)" fill="#998071" width="328.248" height="346.44"/>
	<rect x="86.27" y="211.725" clip-path="url(#SVGID_2_)" fill="#D1B7A6" width="315.618" height="333.112"/>
	<rect x="419.64" y="205.061" clip-path="url(#SVGID_2_)" fill="#998071" width="328.248" height="346.44"/>
	<rect x="425.955" y="211.725" clip-path="url(#SVGID_2_)" fill="#D1B7A6" width="315.618" height="333.112"/>
	<polygon clip-path="url(#SVGID_2_)" fill="#BFA394" points="401.888,211.725 401.888,372.959 86.27,489.268 86.27,211.725 	"/>
	<rect x="364.837" y="319.259" clip-path="url(#SVGID_2_)" fill="#808080" width="10.813" height="118.043"/>
	<polygon clip-path="url(#SVGID_2_)" fill="#BFA394" points="741.573,211.725 741.573,247.715 425.955,364.025 425.955,211.725 	"/>
	<rect x="704.522" y="319.259" clip-path="url(#SVGID_2_)" fill="#808080" width="10.812" height="118.043"/>
	<polygon clip-path="url(#SVGID_2_)" fill="#727272" points="375.649,382.628 364.836,386.998 364.836,319.259 375.649,319.259 	"/>
	<rect x="217.737" y="1189.247" clip-path="url(#SVGID_2_)" fill="#A57F65" width="511.751" height="26.753"/>
	<rect x="201.282" y="819.806" clip-path="url(#SVGID_2_)" fill="#D1B7A6" width="552.889" height="369.441"/>
	<rect y="780.313" clip-path="url(#SVGID_2_)" fill="#E5D0C6" width="778.649" height="39.492"/>
	<rect y="819.806" clip-path="url(#SVGID_2_)" fill="#839B8F" width="201.282" height="396.194"/>
	<rect x="201.282" y="1189.247" clip-path="url(#SVGID_2_)" fill="#839B8F" width="16.561" height="26.753"/>
	<rect y="759.271" clip-path="url(#SVGID_2_)" fill="#E5D0C6" width="778.649" height="21.041"/>
	<polygon clip-path="url(#SVGID_2_)" fill="#BCBBBB" points="540.257,742.096 508.193,742.096 513.396,780.313 535.054,780.313 	"/>
	<polygon clip-path="url(#SVGID_2_)" fill="#BCBBBB" points="445.986,742.096 413.922,742.096 419.126,780.313 440.782,780.313 	"/>
	
		<line clip-path="url(#SVGID_2_)" fill="none" stroke="#BCBBBB" stroke-width="14" stroke-miterlimit="10" x1="472.809" y1="780.313" x2="472.809" y2="738.229"/>
	<g clip-path="url(#SVGID_2_)">
		<defs>
			<rect id="SVGID_3_" width="2433.954" height="1259"/>
		</defs>
		<clipPath id="SVGID_4_">
			<use xlink:href="#SVGID_3_"  overflow="visible"/>
		</clipPath>
		<path clip-path="url(#SVGID_4_)" fill="none" stroke="#BCBBBB" stroke-width="14" stroke-miterlimit="10" d="M472.809,738.229
			c0-17.355,12.98-31.427,28.992-31.427c7.944,0,15.141,3.463,20.377,9.073"/>
		<path clip-path="url(#SVGID_4_)" fill="#A08372" d="M429.204,889.037H202.033v-68.481h227.171V889.037z M429.954,819.806H201.283
			v69.981h228.671V819.806z"/>
		<path clip-path="url(#SVGID_4_)" fill="#A08372" d="M596.155,889.037H430.703v-68.481h165.452V889.037z M596.905,819.806H429.953
			v69.981h166.952V819.806z"/>
		<path clip-path="url(#SVGID_4_)" fill="#A08372" d="M753.421,889.037H597.655v-68.481h155.766V889.037z M754.171,819.806H596.905
			v69.981h157.266V819.806z"/>
		<path clip-path="url(#SVGID_4_)" fill="#A08372" d="M596.155,959.02H430.703v-68.481h165.452V959.02z M596.905,889.787H429.953
			v69.981h166.952V889.787z"/>
		<path clip-path="url(#SVGID_4_)" fill="#A08372" d="M753.421,959.02H597.655v-68.481h155.766V959.02z M754.171,889.787H596.905
			v69.981h157.266V889.787z"/>
		<path clip-path="url(#SVGID_4_)" fill="#A08372" d="M596.155,1029.001H430.703V960.52h165.452V1029.001z M596.905,959.77H429.953
			v69.981h166.952V959.77z"/>
		<path clip-path="url(#SVGID_4_)" fill="#A08372" d="M753.421,1029.001H597.655V960.52h155.766V1029.001z M754.171,959.77H596.905
			v69.981h157.266V959.77z"/>
		<path clip-path="url(#SVGID_4_)" fill="#A08372" d="M596.155,1098.982H430.703v-68.481h165.452V1098.982z M596.905,1029.751
			H429.953v69.981h166.952V1029.751z"/>
		<path clip-path="url(#SVGID_4_)" fill="#A08372" d="M753.421,1098.982H597.655v-68.481h155.766V1098.982z M754.171,1029.751
			H596.905v69.981h157.266V1029.751z"/>
		<path clip-path="url(#SVGID_4_)" fill="#A08372" d="M429.204,1188.497H202.033v-297.96h227.171V1188.497z M429.954,889.787
			H201.283v299.46h228.671V889.787z"/>
		<path clip-path="url(#SVGID_4_)" fill="#A08372" d="M753.421,1188.497H430.704v-88.015h322.717V1188.497z M754.171,1099.732
			H429.954v89.515h324.217V1099.732z"/>
		
			<line clip-path="url(#SVGID_4_)" fill="none" stroke="#A08372" stroke-width="0.5" stroke-miterlimit="10" x1="0" y1="780.313" x2="778.649" y2="780.313"/>
		<rect x="252.2" y="913.965" clip-path="url(#SVGID_4_)" fill="#808080" width="118.043" height="10.813"/>
		<rect x="252.2" y="849.39" clip-path="url(#SVGID_4_)" fill="#808080" width="118.043" height="10.813"/>
		<rect x="447.72" y="849.39" clip-path="url(#SVGID_4_)" fill="#808080" width="118.043" height="10.813"/>
		<rect x="447.72" y="913.965" clip-path="url(#SVGID_4_)" fill="#808080" width="118.043" height="10.813"/>
		<rect x="616.516" y="913.965" clip-path="url(#SVGID_4_)" fill="#808080" width="118.044" height="10.813"/>
		<rect x="616.516" y="849.39" clip-path="url(#SVGID_4_)" fill="#808080" width="118.044" height="10.813"/>
		<rect x="616.516" y="989.354" clip-path="url(#SVGID_4_)" fill="#808080" width="118.044" height="10.813"/>
		<rect x="449.172" y="989.354" clip-path="url(#SVGID_4_)" fill="#808080" width="118.043" height="10.813"/>
		<rect x="449.172" y="1059.335" clip-path="url(#SVGID_4_)" fill="#808080" width="118.043" height="10.813"/>
		<rect x="616.516" y="1059.335" clip-path="url(#SVGID_4_)" fill="#808080" width="118.044" height="10.813"/>
		<rect x="533.041" y="1139.083" clip-path="url(#SVGID_4_)" fill="#808080" width="118.043" height="10.813"/>
		<g opacity="0.25" clip-path="url(#SVGID_4_)">
			<g>
				<defs>
					<rect id="SVGID_5_" x="201.282" y="819.806" width="552.889" height="279.928"/>
				</defs>
				<clipPath id="SVGID_6_">
					<use xlink:href="#SVGID_5_"  overflow="visible"/>
				</clipPath>
				<polygon clip-path="url(#SVGID_6_)" fill="#494949" points="201.282,819.806 754.171,819.806 754.171,939.239 201.282,1099.732 
									"/>
			</g>
		</g>
		<path clip-path="url(#SVGID_4_)" fill="#C1C0BF" d="M2004.296,867.559H945.348c-3.156,0-5.715-2.559-5.715-5.715v-39.614
			c0-3.156,2.559-5.715,5.715-5.715h1058.948c3.156,0,5.715,2.559,5.715,5.715v39.614
			C2010.011,865,2007.452,867.559,2004.296,867.559"/>
		<path clip-path="url(#SVGID_4_)" fill="#A5A5A5" d="M1925.038,867.559H944.567c-2.725,0-4.934-2.209-4.934-4.934v-41.176
			c0-2.726,2.209-4.935,4.934-4.935h980.471c2.726,0,4.935,2.209,4.935,4.935v41.176
			C1929.973,865.35,1927.764,867.559,1925.038,867.559"/>
		<rect x="968.222" y="867.559" clip-path="url(#SVGID_4_)" fill="#D6D6D6" width="24.701" height="348.441"/>
		<polygon clip-path="url(#SVGID_4_)" fill="#C6C6C6" points="977.723,1216 968.222,1216 968.222,867.559 977.723,867.559 
			977.723,1041.217 		"/>
		<rect x="1118.031" y="867.559" clip-path="url(#SVGID_4_)" fill="#D6D6D6" width="22.746" height="348.441"/>
		<rect x="1962.753" y="867.559" clip-path="url(#SVGID_4_)" fill="#D6D6D6" width="29.382" height="348.441"/>
		<rect x="1887.92" y="867.559" clip-path="url(#SVGID_4_)" fill="#D6D6D6" width="27.181" height="348.441"/>
		<polygon clip-path="url(#SVGID_4_)" fill="#C6C6C6" points="1127.532,1216 1118.031,1216 1118.031,867.559 1127.532,867.559 
			1127.532,1041.217 		"/>
		<rect x="1887.92" y="867.559" clip-path="url(#SVGID_4_)" fill="#C6C6C6" width="11.051" height="348.441"/>
		<rect x="1962.753" y="867.559" clip-path="url(#SVGID_4_)" fill="#C6C6C6" width="11.051" height="348.441"/>
	</g>
	<g clip-path="url(#SVGID_2_)">
		<defs>
			<rect id="SVGID_7_" width="2433.954" height="1259"/>
		</defs>
		<clipPath id="SVGID_8_">
			<use xlink:href="#SVGID_7_"  overflow="visible"/>
		</clipPath>
		<path clip-path="url(#SVGID_8_)" fill="#EABEB0" d="M1633.934,757.803l235.532-19.532l208.956,19.532
			c18.707,0,33.871,13.359,33.871,29.84v1.981c0,16.539-15.27,29.923-34.043,29.839l-207.757-20.453l-236.731,18.473
			c-28.592-0.127-44.152-29.48-25.911-48.877C1614.285,761.763,1623.847,757.803,1633.934,757.803"/>
		<path clip-path="url(#SVGID_8_)" fill="#F2F2F2" d="M2124.783,794.05c-0.834,2.807-2.107,5.458-3.776,7.864
			c-6.514,9.386-24.176,32.113-41.168,29.95l-179.654-22.863c-20.632-2.626-35.364-21.654-32.738-42.287l3.917-30.78
			c0.656-5.159,5.415-8.844,10.573-8.187l151.629,20.798c5.643,0.773,11.387-0.221,16.441-2.847l5.505-2.86
			c7.791-4.046,13.186-11.563,14.525-20.237l2.76-17.861c1.51-9.771,8.139-17.982,17.372-21.518l24.015-9.197
			c5.037-1.929,10.528-2.337,15.793-1.174c12.154,2.686,20.996,13.186,21.575,25.618l1.298,27.909
			c0.254,5.448-1.116,10.849-3.935,15.518l-15.188,25.155c-1.209,2.003-2.158,4.152-2.825,6.396L2124.783,794.05z"/>
		<path clip-path="url(#SVGID_8_)" fill="#F2F2F2" d="M2124.783,794.05c-0.834,2.807-2.107,5.458-3.776,7.864
			c-6.514,9.386-24.176,32.113-41.168,29.95l-154.069-19.607l-25.585-3.256c-20.632-2.626-35.364-21.654-32.738-42.287l3.917-30.78
			c0.656-5.159,5.415-8.844,10.573-8.187l20.538,2.816l131.091,17.981c5.643,0.773,11.387-0.221,16.441-2.847l5.505-2.86
			c7.791-4.046,13.186-11.563,14.525-20.237l2.76-17.861c1.51-9.771,8.139-17.982,17.372-21.518l24.015-9.197
			c5.037-1.929,10.528-2.337,15.793-1.174c12.154,2.686,20.996,13.186,21.575,25.618l1.298,27.909
			c0.254,5.448-1.116,10.849-3.935,15.518l-15.188,25.155c-1.209,2.003-2.158,4.152-2.825,6.396L2124.783,794.05z"/>
		
			<line clip-path="url(#SVGID_8_)" fill="none" stroke="#999999" stroke-miterlimit="10" x1="1902.475" y1="730.563" x2="1925.77" y2="812.257"/>
		
			<line clip-path="url(#SVGID_8_)" fill="none" stroke="#999999" stroke-miterlimit="10" x1="1943.068" y1="736.132" x2="1966.956" y2="817.499"/>
		<polyline clip-path="url(#SVGID_8_)" fill="none" stroke="#999999" stroke-miterlimit="10" points="2002.259,744.25 
			2008.927,768.681 2024.24,824.789 		"/>
		
			<line clip-path="url(#SVGID_8_)" fill="none" stroke="#999999" stroke-miterlimit="10" x1="1958.953" y1="790.237" x2="2010.011" y2="771.41"/>
		
			<line clip-path="url(#SVGID_8_)" fill="none" stroke="#999999" stroke-miterlimit="10" x1="1909.215" y1="754.201" x2="1946.076" y2="746.378"/>
		
			<line clip-path="url(#SVGID_8_)" fill="none" stroke="#999999" stroke-miterlimit="10" x1="1953.426" y1="771.41" x2="2004.708" y2="753.224"/>
		
			<line clip-path="url(#SVGID_8_)" fill="none" stroke="#999999" stroke-miterlimit="10" x1="1868.546" y1="781.633" x2="1913.025" y2="767.566"/>
		
			<line clip-path="url(#SVGID_8_)" fill="none" stroke="#999999" stroke-miterlimit="10" x1="1869.403" y1="751.336" x2="1879.658" y2="778.119"/>
		
			<line clip-path="url(#SVGID_8_)" fill="none" stroke="#999999" stroke-miterlimit="10" x1="1896.042" y1="772.938" x2="1911.286" y2="810.414"/>
		
			<line clip-path="url(#SVGID_8_)" fill="none" stroke="#999999" stroke-miterlimit="10" x1="2048.601" y1="746.378" x2="2077.676" y2="831.589"/>
		
			<line clip-path="url(#SVGID_8_)" fill="none" stroke="#999999" stroke-miterlimit="10" x1="2014.811" y1="790.237" x2="2057.663" y2="772.938"/>
		
			<line clip-path="url(#SVGID_8_)" fill="none" stroke="#999999" stroke-miterlimit="10" x1="2065.836" y1="796.892" x2="2135.129" y2="764.728"/>
		
			<line clip-path="url(#SVGID_8_)" fill="none" stroke="#999999" stroke-miterlimit="10" x1="2067.522" y1="730.563" x2="2091.204" y2="784.52"/>
		
			<line clip-path="url(#SVGID_8_)" fill="none" stroke="#999999" stroke-miterlimit="10" x1="2090.169" y1="683.222" x2="2124.827" y2="767.566"/>
		
			<line clip-path="url(#SVGID_8_)" fill="none" stroke="#999999" stroke-miterlimit="10" x1="2102.396" y1="779.921" x2="2115.717" y2="809.011"/>
		
			<line clip-path="url(#SVGID_8_)" fill="none" stroke="#999999" stroke-miterlimit="10" x1="2104.94" y1="719.171" x2="2151.551" y2="698.469"/>
		
			<line clip-path="url(#SVGID_8_)" fill="none" stroke="#999999" stroke-miterlimit="10" x1="2115.717" y1="745.396" x2="2152.85" y2="726.378"/>
		
			<line clip-path="url(#SVGID_8_)" fill="none" stroke="#999999" stroke-miterlimit="10" x1="2073.53" y1="744.25" x2="2107.902" y2="726.378"/>
		<path clip-path="url(#SVGID_8_)" fill="#F7C7B5" d="M1879.354,803.756l-79.829-118.908c-10.327-15.383-32.276-17.169-44.955-3.659
			l-118.524,126.297c-5.409,5.765-12.95,9.055-20.856,9.1l-59.164,0.337l-473.305,2.692c-17.661,0.101-31.259-15.56-28.682-33.032
			l14.955-93.943c2.328-15.789,17.04-26.682,32.82-24.3l456.73,39.789l43.304,6.535c8.593,1.296,17.312-1.353,23.731-7.21
			l132.022-120.459c12.826-11.702,33.012-9.494,43.005,4.704l126.257,179.398c13.442,19.1-0.219,45.419-23.574,45.419
			C1893.683,816.515,1884.707,811.73,1879.354,803.756"/>
		<path clip-path="url(#SVGID_8_)" fill="#E7EF78" d="M1556.024,817.112l-473.305,2.692c-17.661,0.101-31.258-15.56-28.682-33.032
			l14.955-93.943c2.328-15.788,17.04-26.682,32.82-24.3l456.731,39.789"/>
		<path clip-path="url(#SVGID_8_)" fill="#417FB7" d="M1879.354,805.103l-79.829-118.908c-10.327-15.383-32.276-17.169-44.955-3.659
			l-118.524,126.296c-5.409,5.766-12.95,9.056-20.856,9.101l-59.164,0.337c0,0,9.702-39.309,10.07-52.722
			c0.388-14.14-7.552-56.072-7.552-56.072l43.304,6.534c8.593,1.297,17.312-1.352,23.731-7.209l132.022-120.459
			c12.826-11.702,33.012-9.494,43.005,4.704l126.257,179.398c0,0-24.151-3.343-33.417,3.039
			C1883.938,782.175,1879.354,805.103,1879.354,805.103"/>
		<polygon clip-path="url(#SVGID_8_)" fill="#D3AA9C" points="1054.759,790.497 1007.213,764.337 1030.642,690.273 1067.309,696.16 
					"/>
		<path clip-path="url(#SVGID_8_)" fill="#F7C7B5" d="M872.419,655.719c22.128-41.513,78.299-54.785,125.462-29.646
			c47.163,25.141,67.457,79.173,45.329,120.685c-22.128,41.513-78.299,54.785-125.461,29.646
			C870.586,751.263,850.291,697.23,872.419,655.719"/>
		<path clip-path="url(#SVGID_8_)" fill="#F7C7B5" d="M1643.597,785.555l-45.778,9.037c-6.476,1.278-12.819-2.974-14.098-9.449
			l-7.229-36.622c-1.278-6.476,2.974-12.818,9.449-14.097l45.778-9.037c6.475-1.278,12.818,2.974,14.097,9.448l7.229,36.622
			C1654.323,777.933,1650.071,784.276,1643.597,785.555"/>
		<path clip-path="url(#SVGID_8_)" fill="#CCCE72" d="M1086.534,743.021L1086.534,743.021c4.761-26.999,29.836-45.265,56.594-41.223
			l231.556,34.98c2.168,0.327,4.362,0.438,6.551,0.331l194.191-9.476c6.019-0.293,11.368,3.855,12.664,9.821
			c0,0-4.683,21.673-3.146,28.733c1.532,7.039,14.761,24.749,14.761,24.749c1.634,7.524-3.754,14.747-11.34,15.202l-209.042,12.541
			c-1.39,0.083-2.783,0.078-4.173-0.014l-242.665-16.137C1102.731,800.552,1081.287,772.78,1086.534,743.021"/>
		<path clip-path="url(#SVGID_8_)" fill="#42210B" d="M963.013,656.743c0-2.87-2.327-5.197-5.198-5.197
			c-2.871,0-5.198,2.327-5.198,5.197c0,2.871,2.327,5.198,5.198,5.198C960.686,661.941,963.013,659.614,963.013,656.743"/>
		
			<rect x="938.532" y="630.235" transform="matrix(-0.9389 -0.3441 0.3441 -0.9389 1602.8523 1588.1274)" clip-path="url(#SVGID_8_)" fill="#8C6239" width="7.607" height="43.226"/>
		<path clip-path="url(#SVGID_8_)" fill="none" stroke="#603813" stroke-width="4" stroke-miterlimit="10" d="M1037.261,661.941
			l-7.546,4.234c-8.259,4.634-14.583,12.074-17.826,20.971l-3.791,10.4"/>
		<path clip-path="url(#SVGID_8_)" fill="#42210B" d="M933.373,617.17l-4.562,18.156c-0.157,0.625-0.389,1.229-0.691,1.798
			l-17.689,33.297c-1.365,2.567-1.223,5.674,0.37,8.106l21.188,32.366c1.325,2.025,1.659,4.543,0.907,6.844l-17.24,52.726
			c-0.825,2.523-2.844,4.468-5.398,5.191c-6.948,1.967-20.468,5.796-21.796,6.178c-1.461,0.421-58.397-32.39-79.578-44.64
			c-4.158-2.404-5.259-7.911-2.348-11.731l19.759-25.934c0.724-0.95,1.225-2.051,1.467-3.221l21.34-103.428
			c1.528-7.403,11.54-8.723,14.932-1.968l1.699,3.384c1.153,2.295,3.34,3.895,5.877,4.296l55.279,8.763
			c2.559,0.405,4.761,2.028,5.905,4.352C933.628,613.401,933.833,615.338,933.373,617.17"/>
	</g>
</g>
</svg>
