<?xml version="1.0" encoding="utf-8"?>
<!-- Generator: Adobe Illustrator 16.0.0, SVG Export Plug-In . SVG Version: 6.00 Build 0)  -->
<!DOCTYPE svg PUBLIC "-//W3C//DTD SVG 1.1//EN" "http://www.w3.org/Graphics/SVG/1.1/DTD/svg11.dtd">
<svg version="1.1" id="Laag_1" xmlns="http://www.w3.org/2000/svg" xmlns:xlink="http://www.w3.org/1999/xlink" x="0px" y="0px"
	 width="2433.95px" height="1259px" viewBox="0 0 2433.95 1259" enable-background="new 0 0 2433.95 1259" xml:space="preserve">
<rect y="1208.172" fill="#F4CE90" width="2433.954" height="50.828"/>
<rect fill="#F7E6CD" width="2433.954" height="1208.172"/>
<rect x="1680.547" y="294.385" fill="#EFEFEF" width="437.508" height="857.873"/>
<rect x="1716.921" y="326.67" fill="#CEF1F4" width="364.761" height="793.302"/>
<polygon fill="#E6F4F4" points="1716.921,480.89 2081.681,543.127 2081.681,648.552 1716.921,593.935 "/>
<polygon fill="#E6F4F4" points="1716.921,629.5 2081.681,691.738 2081.681,728.526 1716.921,673.909 "/>
<rect x="997.11" y="294.385" fill="#EFEFEF" width="437.508" height="857.873"/>
<rect x="1033.484" y="326.67" fill="#CEF1F4" width="364.76" height="793.302"/>
<polygon fill="#E6F4F4" points="1033.484,480.89 1398.244,543.127 1398.244,648.552 1033.484,593.935 "/>
<polygon fill="#E6F4F4" points="1033.484,629.5 1398.244,691.738 1398.244,728.526 1033.484,673.909 "/>
<rect x="315.899" y="294.385" fill="#EFEFEF" width="437.508" height="857.873"/>
<rect x="352.273" y="326.67" fill="#CEF1F4" width="364.76" height="793.302"/>
<polygon fill="#E6F4F4" points="352.273,480.89 717.033,543.127 717.033,648.552 352.273,593.935 "/>
<polygon fill="#E6F4F4" points="352.273,629.5 717.033,691.738 717.033,728.526 352.273,673.909 "/>
<polygon fill="#446ECC" points="1942.188,1245.97 377.062,1245.97 417.56,1218.972 1901.69,1218.972 "/>
<g>
	<defs>
		<rect id="SVGID_1_" width="2433.954" height="1259"/>
	</defs>
	<clipPath id="SVGID_2_">
		<use xlink:href="#SVGID_1_"  overflow="visible"/>
	</clipPath>
	<path clip-path="url(#SVGID_2_)" fill="#DDA797" d="M1523.996,1153.648l2.946,42.321l40.22-2.801
		c5.564-0.387,9.801-5.258,9.414-10.822l-1.538-22.085c-0.388-5.565-5.258-9.802-10.823-9.414L1523.996,1153.648z"/>
	<path clip-path="url(#SVGID_2_)" fill="#3A251E" d="M1599.62,1155.064c-11.185,29.62,0.356,61.414,25.778,71.012
		c25.421,9.599,55.095-6.634,66.278-36.254c11.185-29.621-0.357-61.414-25.778-71.012
		C1640.477,1109.212,1610.804,1125.443,1599.62,1155.064"/>
	<path clip-path="url(#SVGID_2_)" fill="#F7C7B5" d="M1559.125,1129.645l5.74,82.438c0.098,1.4,1.312,2.457,2.713,2.359
		l57.794-4.025c24.065-1.675,42.384-22.735,40.708-46.8c-1.675-24.065-22.735-42.384-46.801-40.708l-57.795,4.023
		C1560.084,1127.029,1559.027,1128.244,1559.125,1129.645"/>
	<path clip-path="url(#SVGID_2_)" fill="#3A251E" d="M1637.49,1140.428c-3.695,9.787,1.242,20.716,11.029,24.411
		s20.716-1.243,24.41-11.03c3.696-9.786-1.242-20.716-11.028-24.411C1652.114,1125.703,1641.185,1130.641,1637.49,1140.428"/>
	<path clip-path="url(#SVGID_2_)" fill="#3A251E" d="M1620.797,1179.018c-5.477,14.504,1.843,30.7,16.347,36.177
		s30.701-1.842,36.177-16.346c5.477-14.504-1.842-30.701-16.346-36.178C1642.471,1157.195,1626.273,1164.514,1620.797,1179.018"/>
	<path clip-path="url(#SVGID_2_)" fill="#3A251E" d="M1628.782,1167.146c-5.476,14.504,1.843,30.701,16.347,36.178
		c14.504,5.476,30.701-1.843,36.176-16.347c5.478-14.504-1.841-30.701-16.345-36.177
		C1650.456,1145.323,1634.259,1152.642,1628.782,1167.146"/>
	<path clip-path="url(#SVGID_2_)" fill="#3A251E" d="M1603.124,1187.463c-5.478,14.504,1.842,30.701,16.347,36.178
		c14.504,5.477,30.7-1.842,36.176-16.346c5.478-14.504-1.841-30.701-16.345-36.178S1608.601,1172.959,1603.124,1187.463"/>
	<path clip-path="url(#SVGID_2_)" fill="#3A251E" d="M1635.258,1123.472c-2.011,5.325,0.676,11.272,6.001,13.283
		s11.272-0.677,13.283-6.002c2.01-5.325-0.677-11.271-6.002-13.282S1637.269,1118.147,1635.258,1123.472"/>
	<path clip-path="url(#SVGID_2_)" fill="#6A89A5" d="M948.929,1186.14l0.376,16.993c0.249,11.235,9.645,20.224,20.88,19.976
		l262.038-5.802c3.18-0.07,5.723-2.729,5.652-5.906l-0.642-28.971c-0.281-12.704-10.906-22.868-23.61-22.587l-244.719,5.417
		C957.669,1165.509,948.68,1174.904,948.929,1186.14"/>
	<path clip-path="url(#SVGID_2_)" fill="#E2AF9F" d="M737.979,1198.28l0.054,2.344c0.323,13.889,11.842,24.886,25.731,24.563
		l187.905-4.364c13.889-0.322,24.885-11.842,24.563-25.729l-0.055-2.345c-0.322-13.888-11.842-24.885-25.73-24.563l-187.906,4.365
		C748.653,1172.872,737.656,1184.392,737.979,1198.28"/>
	<path clip-path="url(#SVGID_2_)" fill="#84A9D1" d="M1031.991,1001.067l-11.663,12.364c-7.711,8.175-7.331,21.173,0.844,28.884
		l190.666,179.846c2.313,2.182,5.989,2.074,8.171-0.239l19.882-21.079c8.721-9.244,8.291-23.941-0.952-32.661l-178.063-167.958
		C1052.7,992.513,1039.702,992.893,1031.991,1001.067"/>
	<path clip-path="url(#SVGID_2_)" fill="#F7C7B5" d="M831.412,1007.763l3.356,49.745c0.017,0.247,0.231,0.434,0.477,0.417
		l201.593-13.602c13.86-0.936,24.338-12.929,23.402-26.789c-0.934-13.86-12.929-24.338-26.789-23.403L831.412,1007.763z"/>
	<path clip-path="url(#SVGID_2_)" fill="#F2F0E4" d="M1207.781,1149.564l2.293,69.105c0.094,2.824,3.713,5.193,8.086,5.265
		l242.281,3.957c39.264,0.642,73.086-15.349,72.415-35.581l-1.256-37.842c-0.673-20.231-35.479-33.946-74.614-30.703
		l-241.486,20.009C1211.141,1144.136,1207.687,1146.739,1207.781,1149.564"/>
	<path clip-path="url(#SVGID_2_)" fill="#84A9D1" d="M1263.151,1139.855l-47.521,3.938c-4.358,0.36-7.812,2.964-7.718,5.788
		l2.293,69.105c0.093,2.825,3.713,5.193,8.085,5.266l45.393,0.741"/>
	<path clip-path="url(#SVGID_2_)" fill="#EDEBDA" d="M1345.714,1203.243L1345.714,1203.243
		c3.305,11.423,15.354,18.065,26.778,14.761l128.137-37.07c11.423-3.306,18.064-15.355,14.761-26.778
		c-3.305-11.424-15.355-18.066-26.778-14.762l-128.137,37.071C1349.051,1179.77,1342.409,1191.82,1345.714,1203.243"/>
	<path clip-path="url(#SVGID_2_)" fill="#F7C7B5" d="M1205.108,1194.649L1205.108,1194.649
		c-0.166,12.185,9.668,22.289,21.853,22.455l132.31,1.802c12.185,0.166,22.29-9.667,22.456-21.853
		c0.166-12.185-9.668-22.289-21.853-22.455l-132.31-1.802C1215.379,1172.631,1205.274,1182.465,1205.108,1194.649"/>
	<path clip-path="url(#SVGID_2_)" fill="#19100D" d="M1606.593,1133.794c-1.096,2.901,0.368,6.143,3.271,7.238
		s6.143-0.369,7.238-3.271c1.095-2.902-0.368-6.143-3.271-7.239C1610.929,1129.428,1607.688,1130.892,1606.593,1133.794"/>
	<path clip-path="url(#SVGID_2_)" fill="#2D2929" d="M843.928,1064.249L843.928,1064.249c5.968,0.32,10.449-3.708,9.959-8.952
		l-1.646-17.595c-0.491-5.243-5.775-9.796-11.743-10.116c-5.967-0.32-10.449,3.708-9.959,8.951l1.646,17.596
		C832.676,1059.376,837.959,1063.929,843.928,1064.249"/>
	<path clip-path="url(#SVGID_2_)" fill="#2D2929" d="M831.065,1042.85c17.86,0.588,30.803-11.698,28.909-27.443
		c-1.894-15.744-17.907-28.986-35.767-29.575"/>
	<path clip-path="url(#SVGID_2_)" fill="#2D2929" d="M755.67,1225.955L755.67,1225.955c5.969,0.308,10.441-3.729,9.939-8.973
		l-1.684-17.592c-0.502-5.242-5.796-9.783-11.764-10.091c-5.969-0.308-10.441,3.73-9.939,8.973l1.684,17.592
		C744.407,1221.106,749.701,1225.647,755.67,1225.955"/>
	<path clip-path="url(#SVGID_2_)" fill="#2D2929" d="M742.761,1204.583c17.861,0.551,30.778-11.765,28.85-27.505
		c-1.928-15.741-17.97-28.948-35.83-29.498"/>
	<path clip-path="url(#SVGID_2_)" fill="none" stroke="#3A251E" stroke-width="3" stroke-miterlimit="10" d="M1583.464,1126.363
		l-0.467,1.391c-1.657,4.939-1.557,10.3,0.284,15.175l0.223,0.589"/>
	<path clip-path="url(#SVGID_2_)" fill="#F7C7B5" d="M1192.175,1189.292L1192.175,1189.292
		c-1.807,10.229,5.083,20.076,15.312,21.884l4.234,0.748c10.229,1.807,20.076-5.083,21.883-15.313
		c1.808-10.229-5.083-20.076-15.312-21.883l-4.233-0.748C1203.83,1172.173,1193.983,1179.063,1192.175,1189.292"/>
</g>
</svg>
