<?xml version="1.0" encoding="utf-8"?>
<!-- Generator: Adobe Illustrator 16.0.0, SVG Export Plug-In . SVG Version: 6.00 Build 0)  -->
<!DOCTYPE svg PUBLIC "-//W3C//DTD SVG 1.1//EN" "http://www.w3.org/Graphics/SVG/1.1/DTD/svg11.dtd">
<svg version="1.1" id="Laag_1" xmlns="http://www.w3.org/2000/svg" xmlns:xlink="http://www.w3.org/1999/xlink" x="0px" y="0px"
	 width="2433.95px" height="1259px" viewBox="0 0 2433.95 1259" enable-background="new 0 0 2433.95 1259" xml:space="preserve">
<g>
	<defs>
		<rect id="SVGID_1_" width="2433.95" height="1259"/>
	</defs>
	<clipPath id="SVGID_2_">
		<use xlink:href="#SVGID_1_"  overflow="visible"/>
	</clipPath>
	<rect y="1216" clip-path="url(#SVGID_2_)" fill="#5D8C7C" width="2433.954" height="43"/>
	<rect clip-path="url(#SVGID_2_)" fill="#A7CEBD" width="2433.954" height="1216"/>
	<rect x="891.031" y="92.773" clip-path="url(#SVGID_2_)" fill="#7DAA94" width="454" height="689.059"/>
	<rect x="907.245" y="117.383" clip-path="url(#SVGID_2_)" fill="#C6E5E2" width="421.571" height="639.84"/>
	<polyline clip-path="url(#SVGID_2_)" fill="#F5F7F7" points="1133.241,362.051 1329.031,524.115 1329.031,398.135 
		1133.241,241.736 	"/>
	<polyline clip-path="url(#SVGID_2_)" fill="#F5F7F7" points="1101.813,464.974 907.03,309.379 907.03,385.161 1101.813,546.392 	
		"/>
	<polyline clip-path="url(#SVGID_2_)" fill="#F5F7F7" points="1101.813,626.83 907.03,467.041 907.03,443.391 1101.813,602.497 	"/>
	<polygon clip-path="url(#SVGID_2_)" fill="#7DAA94" points="1133.031,468.47 1133.031,757.803 1102.031,757.803 1102.031,115.803 
		1133.031,115.803 	"/>
	<rect x="1845.438" y="92.773" clip-path="url(#SVGID_2_)" fill="#7DAA94" width="454" height="689.059"/>
	<rect x="1861.652" y="117.383" clip-path="url(#SVGID_2_)" fill="#C6E5E2" width="421.57" height="639.84"/>
	<polyline clip-path="url(#SVGID_2_)" fill="#F5F7F7" points="2087.646,362.051 2283.437,524.115 2283.437,398.135 
		2087.646,241.736 	"/>
	<polyline clip-path="url(#SVGID_2_)" fill="#F5F7F7" points="2056.219,464.974 1861.437,309.379 1861.437,385.161 
		2056.219,546.392 	"/>
	<polyline clip-path="url(#SVGID_2_)" fill="#F5F7F7" points="2056.219,626.83 1861.437,467.041 1861.437,443.391 2056.219,602.497 
			"/>
	<polygon clip-path="url(#SVGID_2_)" fill="#7DAA94" points="2087.437,468.47 2087.437,757.803 2056.437,757.803 2056.437,115.803 
		2087.437,115.803 	"/>
	<rect x="217.737" y="1189.247" clip-path="url(#SVGID_2_)" fill="#A57F65" width="511.751" height="26.753"/>
	<rect x="201.282" y="819.806" clip-path="url(#SVGID_2_)" fill="#D1B7A6" width="552.889" height="369.441"/>
	<rect y="780.313" clip-path="url(#SVGID_2_)" fill="#E5D0C6" width="778.649" height="39.492"/>
	<rect y="819.806" clip-path="url(#SVGID_2_)" fill="#839B8F" width="201.282" height="396.194"/>
	<rect x="201.282" y="1189.247" clip-path="url(#SVGID_2_)" fill="#839B8F" width="16.561" height="26.753"/>
	<rect y="759.271" clip-path="url(#SVGID_2_)" fill="#E5D0C6" width="778.649" height="21.041"/>
	<polygon clip-path="url(#SVGID_2_)" fill="#BCBBBB" points="540.257,742.096 508.193,742.096 513.396,780.313 535.054,780.313 	"/>
	<polygon clip-path="url(#SVGID_2_)" fill="#BCBBBB" points="445.986,742.096 413.922,742.096 419.126,780.313 440.782,780.313 	"/>
	
		<line clip-path="url(#SVGID_2_)" fill="none" stroke="#BCBBBB" stroke-width="14" stroke-miterlimit="10" x1="472.809" y1="780.313" x2="472.809" y2="738.229"/>
	<g clip-path="url(#SVGID_2_)">
		<defs>
			<rect id="SVGID_3_" width="2433.954" height="1259"/>
		</defs>
		<clipPath id="SVGID_4_">
			<use xlink:href="#SVGID_3_"  overflow="visible"/>
		</clipPath>
		<path clip-path="url(#SVGID_4_)" fill="none" stroke="#BCBBBB" stroke-width="14" stroke-miterlimit="10" d="M472.809,738.229
			c0-17.355,12.98-31.427,28.992-31.427c7.944,0,15.141,3.463,20.377,9.073"/>
		<path clip-path="url(#SVGID_4_)" fill="#A08372" d="M429.204,889.037H202.033v-68.481h227.171V889.037z M429.954,819.806H201.283
			v69.981h228.671V819.806z"/>
		<path clip-path="url(#SVGID_4_)" fill="#A08372" d="M596.155,889.037H430.703v-68.481h165.452V889.037z M596.905,819.806H429.953
			v69.981h166.952V819.806z"/>
		<path clip-path="url(#SVGID_4_)" fill="#A08372" d="M753.421,889.037H597.655v-68.481h155.766V889.037z M754.171,819.806H596.905
			v69.981h157.266V819.806z"/>
		<path clip-path="url(#SVGID_4_)" fill="#A08372" d="M596.155,959.02H430.703v-68.481h165.452V959.02z M596.905,889.787H429.953
			v69.981h166.952V889.787z"/>
		<path clip-path="url(#SVGID_4_)" fill="#A08372" d="M753.421,959.02H597.655v-68.481h155.766V959.02z M754.171,889.787H596.905
			v69.981h157.266V889.787z"/>
		<path clip-path="url(#SVGID_4_)" fill="#A08372" d="M596.155,1029.001H430.703V960.52h165.452V1029.001z M596.905,959.77H429.953
			v69.981h166.952V959.77z"/>
		<path clip-path="url(#SVGID_4_)" fill="#A08372" d="M753.421,1029.001H597.655V960.52h155.766V1029.001z M754.171,959.77H596.905
			v69.981h157.266V959.77z"/>
		<path clip-path="url(#SVGID_4_)" fill="#A08372" d="M596.155,1098.982H430.703v-68.481h165.452V1098.982z M596.905,1029.751
			H429.953v69.981h166.952V1029.751z"/>
		<path clip-path="url(#SVGID_4_)" fill="#A08372" d="M753.421,1098.982H597.655v-68.481h155.766V1098.982z M754.171,1029.751
			H596.905v69.981h157.266V1029.751z"/>
		<path clip-path="url(#SVGID_4_)" fill="#A08372" d="M429.204,1188.497H202.033v-297.96h227.171V1188.497z M429.954,889.787
			H201.283v299.46h228.671V889.787z"/>
		<path clip-path="url(#SVGID_4_)" fill="#A08372" d="M753.421,1188.497H430.704v-88.015h322.717V1188.497z M754.171,1099.732
			H429.954v89.515h324.217V1099.732z"/>
		
			<line clip-path="url(#SVGID_4_)" fill="none" stroke="#A08372" stroke-width="0.5" stroke-miterlimit="10" x1="0" y1="780.313" x2="778.649" y2="780.313"/>
		<rect x="252.2" y="913.965" clip-path="url(#SVGID_4_)" fill="#808080" width="118.043" height="10.813"/>
		<rect x="252.2" y="849.39" clip-path="url(#SVGID_4_)" fill="#808080" width="118.043" height="10.813"/>
		<rect x="447.72" y="849.39" clip-path="url(#SVGID_4_)" fill="#808080" width="118.043" height="10.813"/>
		<rect x="447.72" y="913.965" clip-path="url(#SVGID_4_)" fill="#808080" width="118.043" height="10.813"/>
		<rect x="616.516" y="913.965" clip-path="url(#SVGID_4_)" fill="#808080" width="118.044" height="10.813"/>
		<rect x="616.516" y="849.39" clip-path="url(#SVGID_4_)" fill="#808080" width="118.044" height="10.813"/>
		<rect x="616.516" y="989.354" clip-path="url(#SVGID_4_)" fill="#808080" width="118.044" height="10.813"/>
		<rect x="449.172" y="989.354" clip-path="url(#SVGID_4_)" fill="#808080" width="118.043" height="10.813"/>
		<rect x="449.172" y="1059.335" clip-path="url(#SVGID_4_)" fill="#808080" width="118.043" height="10.813"/>
		<rect x="616.516" y="1059.335" clip-path="url(#SVGID_4_)" fill="#808080" width="118.044" height="10.813"/>
		<rect x="533.041" y="1139.083" clip-path="url(#SVGID_4_)" fill="#808080" width="118.043" height="10.813"/>
		<g opacity="0.25" clip-path="url(#SVGID_4_)">
			<g>
				<defs>
					<rect id="SVGID_5_" x="201.282" y="819.806" width="552.889" height="279.928"/>
				</defs>
				<clipPath id="SVGID_6_">
					<use xlink:href="#SVGID_5_"  overflow="visible"/>
				</clipPath>
				<polygon clip-path="url(#SVGID_6_)" fill="#494949" points="201.282,819.806 754.171,819.806 754.171,939.239 201.282,1099.732 
									"/>
			</g>
		</g>
		<path clip-path="url(#SVGID_4_)" fill="#C1C0BF" d="M2004.296,867.559H945.348c-3.156,0-5.715-2.559-5.715-5.715v-39.614
			c0-3.156,2.559-5.715,5.715-5.715h1058.948c3.156,0,5.715,2.559,5.715,5.715v39.614
			C2010.011,865,2007.452,867.559,2004.296,867.559"/>
		<path clip-path="url(#SVGID_4_)" fill="#A5A5A5" d="M1925.038,867.559H944.567c-2.725,0-4.934-2.209-4.934-4.934v-41.176
			c0-2.726,2.209-4.935,4.934-4.935h980.471c2.726,0,4.935,2.209,4.935,4.935v41.176
			C1929.973,865.35,1927.764,867.559,1925.038,867.559"/>
		<rect x="968.222" y="867.559" clip-path="url(#SVGID_4_)" fill="#D6D6D6" width="24.701" height="348.441"/>
		<polygon clip-path="url(#SVGID_4_)" fill="#C6C6C6" points="977.723,1216 968.222,1216 968.222,867.559 977.723,867.559 
			977.723,1041.217 		"/>
		<rect x="1118.031" y="867.559" clip-path="url(#SVGID_4_)" fill="#D6D6D6" width="22.746" height="348.441"/>
		<rect x="1962.753" y="867.559" clip-path="url(#SVGID_4_)" fill="#D6D6D6" width="29.382" height="348.441"/>
		<rect x="1887.92" y="867.559" clip-path="url(#SVGID_4_)" fill="#D6D6D6" width="27.181" height="348.441"/>
		<polygon clip-path="url(#SVGID_4_)" fill="#C6C6C6" points="1127.532,1216 1118.031,1216 1118.031,867.559 1127.532,867.559 
			1127.532,1041.217 		"/>
		<rect x="1887.92" y="867.559" clip-path="url(#SVGID_4_)" fill="#C6C6C6" width="11.051" height="348.441"/>
		<rect x="1962.753" y="867.559" clip-path="url(#SVGID_4_)" fill="#C6C6C6" width="11.051" height="348.441"/>
	</g>
	<g clip-path="url(#SVGID_2_)">
		<defs>
			<rect id="SVGID_7_" width="2433.954" height="1259"/>
		</defs>
		<clipPath id="SVGID_8_">
			<use xlink:href="#SVGID_7_"  overflow="visible"/>
		</clipPath>
		<path clip-path="url(#SVGID_8_)" fill="#6A89A5" d="M2097.12,1004.775l-3.521,0.443c-10.048,1.264-19.479-5.928-21.107-16.347
			l-30.525-195.283c-2.791-17.854,6.035-34.275,19.818-36.009l4.828-0.607c13.782-1.734,26.401,11.99,28.118,29.979l18.791,196.759
			C2114.525,994.208,2107.169,1003.512,2097.12,1004.775"/>
		<polygon clip-path="url(#SVGID_8_)" fill="#E0B4A6" points="2225.464,516.597 2272.564,516.597 2283.609,473.605 
			2214.418,473.605 		"/>
		<path clip-path="url(#SVGID_8_)" fill="#F7C7B5" d="M2195.719,489.285h106.592c11.359,0,19.737-11.08,18.737-24.409l-6.408-85.397
			c-2.804-37.355-32.24-65.625-65.625-65.625c-33.386,0-62.822,28.27-65.625,65.625l-6.409,85.397
			C2175.98,478.205,2184.358,489.285,2195.719,489.285"/>
		<path clip-path="url(#SVGID_8_)" fill="#176347" d="M2137.836,735.661L2137.836,735.661c11.639,7.897,27.623,4.839,35.521-6.799
			l88.601-130.55c7.899-11.637,4.84-27.623-6.799-35.521c-11.639-7.899-27.623-4.839-35.521,6.8l-88.601,130.549
			C2123.138,711.777,2126.197,727.763,2137.836,735.661"/>
		<path clip-path="url(#SVGID_8_)" fill="#D19988" d="M2178.778,729.686L2178.778,729.686c7.589-11.844-0.857-30.085-17.708-39.917
			l-133.88-78.117c-8.535-4.98-19.325-2.488-24.334,5.329c-5.01,7.819-2.763,18.664,5.329,24.336l126.93,88.967
			C2151.09,741.479,2171.19,741.528,2178.778,729.686"/>
		<path clip-path="url(#SVGID_8_)" fill="#1D825E" d="M2281.423,1083.387L2281.423,1083.387c11.893,0,21.622-9.729,21.622-21.621
			V898.941c0-11.892-9.729-21.621-21.621-21.621c-11.893,0-21.622,9.729-21.622,21.621v162.824
			C2259.802,1073.658,2269.531,1083.387,2281.423,1083.387"/>
		<path clip-path="url(#SVGID_8_)" fill="#176347" d="M2227.393,1083.387L2227.393,1083.387c11.892,0,21.622-9.729,21.622-21.621
			V898.941c0-11.892-9.729-21.621-21.622-21.621s-21.621,9.729-21.621,21.621v162.824
			C2205.771,1073.658,2215.5,1083.387,2227.393,1083.387"/>
		<path clip-path="url(#SVGID_8_)" fill="#239670" d="M2197.162,918.58h110.457c4.515,0,8.473-3.709,8.798-8.285l22.752-320.081
			c3.177-44.692-21.603-83.767-55.281-83.767h-62.995c-33.679,0-58.457,39.075-55.28,83.767l22.752,320.081
			C2188.689,914.871,2192.646,918.58,2197.162,918.58"/>
		<path clip-path="url(#SVGID_8_)" fill="#176347" d="M2249.015,1219.716v-155.618c0-13.873-9.729-25.224-21.622-25.224
			s-21.621,11.351-21.621,25.224v155.618"/>
		<path clip-path="url(#SVGID_8_)" fill="#F7C7B5" d="M2229.315,796.914L2229.315,796.914c13.919,2.026,26.856-0.872,28.901-6.884
			l47.074-138.344c9.025-26.523-10.869-56.419-45.885-61.517c-35.015-5.097-62.607,17.889-61.517,45.885l5.684,146.022
			C2203.82,788.422,2215.396,794.889,2229.315,796.914"/>
		<path clip-path="url(#SVGID_8_)" fill="#21726E" d="M2249.015,1219.716c0-28.758-21.538-52.071-48.105-52.071
			s-48.104,23.313-48.104,52.071"/>
		<path clip-path="url(#SVGID_8_)" fill="#1D825E" d="M2303.192,1219.716v-155.618c0-13.873-9.729-25.224-21.621-25.224
			s-21.621,11.351-21.621,25.224v155.618"/>
		<path clip-path="url(#SVGID_8_)" fill="#32A5A2" d="M2303.192,1219.716c0-28.758-21.537-52.071-48.104-52.071
			s-48.104,23.313-48.104,52.071"/>
		<path clip-path="url(#SVGID_8_)" fill="#F7C7B5" d="M2263.559,773.531L2263.559,773.531c1.639-13.97-15.243-27.999-35.889-30.944
			l-153.236-21.862c-9.164-1.308-17.118,4.628-18.115,13.127s5.246,17.153,14.307,19.335l151.521,36.49
			C2242.56,794.593,2261.918,787.501,2263.559,773.531"/>
		<path clip-path="url(#SVGID_8_)" fill="#239670" d="M2323.72,361.811l-10.058-69.08c-1.03-7.072-7.095-12.318-14.242-12.318
			h-100.812c-7.147,0-13.212,5.246-14.241,12.318l-10.058,69.08c-0.97,6.66,4.194,12.631,10.925,12.631h127.56
			C2319.524,374.441,2324.689,368.471,2323.72,361.811"/>
		<path clip-path="url(#SVGID_8_)" fill="#F5F7F7" d="M2171.532,342.797c4.338,0.702,9.615-9.6,11.787-23.011
			c2.171-13.41,0.415-24.852-3.925-25.554"/>
		<polyline clip-path="url(#SVGID_8_)" fill="#239670" points="2199.098,667.097 2290.57,720.63 2329.05,612.89 2262.707,550.262 
			2211.584,559.093 2189.676,615.087 2200.264,669.499 		"/>
		<path clip-path="url(#SVGID_8_)" fill="#DDA797" d="M1823.745,483.74l-42.423,0.121l-0.115-40.317
			c-0.016-5.578,4.535-10.156,10.114-10.172l22.138-0.063c5.578-0.015,10.156,4.535,10.172,10.115L1823.745,483.74z"/>
		<path clip-path="url(#SVGID_8_)" fill="#3A251E" d="M1816.771,408.563c-28.826,13.097-61.307,3.658-72.546-21.08
			c-11.239-24.739,3.018-55.411,31.844-68.507c28.826-13.097,61.306-3.659,72.545,21.08
			C1859.853,364.794,1845.597,395.467,1816.771,408.563"/>
		<path clip-path="url(#SVGID_8_)" fill="#F7C7B5" d="M1844.782,447.309l-82.636-0.338c-1.403-0.006-2.537-1.148-2.531-2.553
			l0.236-57.933c0.099-24.123,19.917-43.78,44.039-43.681c24.123,0.099,43.78,19.916,43.682,44.039l-0.237,57.935
			C1847.329,446.181,1846.187,447.314,1844.782,447.309"/>
		<path clip-path="url(#SVGID_8_)" fill="#3A251E" d="M1828.899,369.816c-9.524,4.327-20.753,0.114-25.08-9.41
			c-4.327-9.524-0.114-20.753,9.41-25.08c9.523-4.327,20.753-0.114,25.08,9.411C1842.637,354.26,1838.424,365.49,1828.899,369.816"
			/>
		<path clip-path="url(#SVGID_8_)" fill="#3A251E" d="M1791.483,388.996c-14.114,6.413-30.756,0.169-37.168-13.945
			c-6.413-14.116-0.169-30.756,13.945-37.169c14.115-6.413,30.756-0.169,37.169,13.946
			C1811.842,365.942,1805.599,382.584,1791.483,388.996"/>
		<path clip-path="url(#SVGID_8_)" fill="#3A251E" d="M1802.808,380.252c-14.114,6.413-30.756,0.169-37.168-13.945
			c-6.413-14.116-0.169-30.756,13.945-37.169c14.115-6.413,30.756-0.169,37.169,13.946
			C1823.166,357.198,1816.923,373.84,1802.808,380.252"/>
		<path clip-path="url(#SVGID_8_)" fill="#3A251E" d="M1784.211,407.185c-14.114,6.412-30.756,0.169-37.168-13.946
			c-6.413-14.116-0.169-30.756,13.945-37.169c14.115-6.412,30.756-0.169,37.169,13.946S1798.326,400.771,1784.211,407.185"/>
		<path clip-path="url(#SVGID_8_)" fill="#6A89A5" d="M2093.384,777.206v16.997c0,11.237-9.194,20.433-20.433,20.433h-262.103
			c-3.18,0-5.78-2.602-5.78-5.78v-28.978c0-12.708,10.397-23.104,23.104-23.104h244.778
			C2084.189,756.773,2093.384,765.968,2093.384,777.206"/>
		<path clip-path="url(#SVGID_8_)" fill="#84A9D1" d="M2045.027,775.819v16.997c0,11.237-9.195,20.433-20.434,20.433h-262.103
			c-3.179,0-5.78-2.602-5.78-5.78v-28.978c0-12.708,10.397-23.104,23.104-23.104h244.778
			C2035.832,755.387,2045.027,764.581,2045.027,775.819"/>
		<path clip-path="url(#SVGID_8_)" fill="#84A9D1" d="M2130.027,958.717l-45.657,20.033c-0.227,0.1-0.49-0.004-0.59-0.23
			l-81.182-185.023c-5.582-12.722,0.206-27.559,12.927-33.141c12.722-5.581,27.559,0.206,33.14,12.928L2130.027,958.717z"/>
		<path clip-path="url(#SVGID_8_)" fill="#EAE4A2" d="M1761.417,785.387l69.143,0.317c2.826,0.014,5.33-3.514,5.566-7.88
			l13.103-241.959c2.123-39.211-12.58-73.614-32.822-73.707l-37.862-0.174c-20.242-0.093-35.261,34.173-33.498,73.401l10.877,242.07
			C1756.119,781.823,1758.591,785.374,1761.417,785.387"/>
		<path clip-path="url(#SVGID_8_)" fill="#84A9D1" d="M1753.806,729.69l2.141,47.636c0.196,4.368,2.667,7.918,5.493,7.931
			l69.144,0.318c2.826,0.013,5.329-3.515,5.566-7.881l2.454-45.332"/>
		<path clip-path="url(#SVGID_8_)" fill="#DDD497" d="M1793.751,645.154L1793.751,645.154c-11.892,0.05-21.662-9.638-21.713-21.529
			l-0.565-133.391c-0.051-11.892,9.637-21.662,21.529-21.713c11.892-0.051,21.662,9.638,21.713,21.529l0.566,133.391
			C1815.331,635.333,1805.643,645.104,1793.751,645.154"/>
		<path clip-path="url(#SVGID_8_)" fill="#DDD497" d="M1893.347,750.105L1893.347,750.105c-9.417,7.734-23.449,6.356-31.185-3.061
			l-83.979-102.256c-7.734-9.417-6.358-23.451,3.059-31.184c9.418-7.734,23.451-6.357,31.185,3.06l83.98,102.256
			C1904.142,728.339,1902.765,742.371,1893.347,750.105"/>
		<path clip-path="url(#SVGID_8_)" fill="#19100D" d="M1837.539,400.214c-2.824,1.283-6.153,0.034-7.438-2.79
			c-1.282-2.824-0.033-6.153,2.791-7.437c2.824-1.283,6.154-0.034,7.437,2.79C1841.612,395.602,1840.363,398.931,1837.539,400.214"
			/>
		<path clip-path="url(#SVGID_8_)" fill="#2D2929" d="M2074.157,973.747L2074.157,973.747c-3.044-5.144-1.545-10.979,3.33-12.97
			l16.362-6.678c4.875-1.991,11.355,0.588,14.399,5.73v0.001c3.044,5.144,1.546,10.979-3.33,12.97l-16.362,6.679
			C2083.682,981.47,2077.202,978.89,2074.157,973.747"/>
		<path clip-path="url(#SVGID_8_)" fill="#2D2929" d="M2099.08,975.254c-8.782-15.563-3.876-32.721,10.96-38.324
			s33.981,2.471,42.765,18.032"/>
		<path clip-path="url(#SVGID_8_)" fill="#1E1C1C" d="M2068.427,1005.655L2068.427,1005.655c-1.599-5.759,1.371-11.003,6.598-11.652
			l17.537-2.181c5.226-0.65,10.808,3.53,12.406,9.289c1.598,5.759-1.371,11.003-6.599,11.652l-17.537,2.181
			C2075.607,1015.595,2070.024,1011.414,2068.427,1005.655"/>
		<path clip-path="url(#SVGID_8_)" fill="#1E1C1C" d="M2092.094,1013.609c-4.42-17.314,4.792-32.599,20.576-34.14
			c15.783-1.54,32.16,11.247,36.581,28.562"/>
		<path clip-path="url(#SVGID_8_)" fill="none" stroke="#3A251E" stroke-width="3" stroke-miterlimit="10" d="M1846.569,424.61
			l-1.423,0.354c-5.057,1.261-10.392,0.737-15.104-1.484l-0.57-0.269"/>
		<path clip-path="url(#SVGID_8_)" fill="#F7C7B5" d="M1902.844,764.247L1902.844,764.247c-8.515,5.948-20.35,3.848-26.297-4.668
			l-2.462-3.524c-5.948-8.516-3.847-20.35,4.668-26.297c8.516-5.948,20.35-3.848,26.298,4.668l2.462,3.524
			C1913.46,746.466,1911.359,758.3,1902.844,764.247"/>
	</g>
</g>
</svg>
