<?xml version="1.0" encoding="utf-8"?>
<!-- Generator: Adobe Illustrator 16.0.0, SVG Export Plug-In . SVG Version: 6.00 Build 0)  -->
<!DOCTYPE svg PUBLIC "-//W3C//DTD SVG 1.1//EN" "http://www.w3.org/Graphics/SVG/1.1/DTD/svg11.dtd">
<svg version="1.1" id="Laag_1" xmlns="http://www.w3.org/2000/svg" xmlns:xlink="http://www.w3.org/1999/xlink" x="0px" y="0px"
	 width="2433.95px" height="1259px" viewBox="0 0 2433.95 1259" enable-background="new 0 0 2433.95 1259" xml:space="preserve">
<g>
	<defs>
		<rect id="SVGID_1_" width="2433.95" height="1259"/>
	</defs>
	<clipPath id="SVGID_2_">
		<use xlink:href="#SVGID_1_"  overflow="visible"/>
	</clipPath>
	<rect y="1216" clip-path="url(#SVGID_2_)" fill="#5D8C7C" width="2433.954" height="43"/>
	<rect clip-path="url(#SVGID_2_)" fill="#A7CEBD" width="2433.954" height="1216"/>
	<rect x="891.031" y="92.773" clip-path="url(#SVGID_2_)" fill="#7DAA94" width="454" height="689.059"/>
	<rect x="907.245" y="117.383" clip-path="url(#SVGID_2_)" fill="#C6E5E2" width="421.571" height="639.84"/>
	<polyline clip-path="url(#SVGID_2_)" fill="#F5F7F7" points="1133.241,362.051 1329.031,524.115 1329.031,398.135 
		1133.241,241.736 	"/>
	<polyline clip-path="url(#SVGID_2_)" fill="#F5F7F7" points="1101.813,464.974 907.03,309.379 907.03,385.161 1101.813,546.392 	
		"/>
	<polyline clip-path="url(#SVGID_2_)" fill="#F5F7F7" points="1101.813,626.83 907.03,467.041 907.03,443.391 1101.813,602.497 	"/>
	<polygon clip-path="url(#SVGID_2_)" fill="#7DAA94" points="1133.031,468.47 1133.031,757.803 1102.031,757.803 1102.031,115.803 
		1133.031,115.803 	"/>
	<rect x="1845.438" y="92.773" clip-path="url(#SVGID_2_)" fill="#7DAA94" width="454" height="689.059"/>
	<rect x="1861.652" y="117.383" clip-path="url(#SVGID_2_)" fill="#C6E5E2" width="421.57" height="639.84"/>
	<polyline clip-path="url(#SVGID_2_)" fill="#F5F7F7" points="2087.646,362.051 2283.437,524.115 2283.437,398.135 
		2087.646,241.736 	"/>
	<polyline clip-path="url(#SVGID_2_)" fill="#F5F7F7" points="2056.219,464.974 1861.437,309.379 1861.437,385.161 
		2056.219,546.392 	"/>
	<polyline clip-path="url(#SVGID_2_)" fill="#F5F7F7" points="2056.219,626.83 1861.437,467.041 1861.437,443.391 2056.219,602.497 
			"/>
	<polygon clip-path="url(#SVGID_2_)" fill="#7DAA94" points="2087.437,468.47 2087.437,757.803 2056.437,757.803 2056.437,115.803 
		2087.437,115.803 	"/>
	<rect x="217.737" y="1189.247" clip-path="url(#SVGID_2_)" fill="#A57F65" width="511.751" height="26.753"/>
	<rect x="201.282" y="819.806" clip-path="url(#SVGID_2_)" fill="#D1B7A6" width="552.889" height="369.441"/>
	<rect y="780.313" clip-path="url(#SVGID_2_)" fill="#E5D0C6" width="778.649" height="39.492"/>
	<rect y="819.806" clip-path="url(#SVGID_2_)" fill="#839B8F" width="201.282" height="396.194"/>
	<rect x="201.282" y="1189.247" clip-path="url(#SVGID_2_)" fill="#839B8F" width="16.561" height="26.753"/>
	<rect y="759.271" clip-path="url(#SVGID_2_)" fill="#E5D0C6" width="778.649" height="21.041"/>
	<polygon clip-path="url(#SVGID_2_)" fill="#BCBBBB" points="540.257,742.096 508.193,742.096 513.396,780.313 535.054,780.313 	"/>
	<polygon clip-path="url(#SVGID_2_)" fill="#BCBBBB" points="445.986,742.096 413.922,742.096 419.126,780.313 440.782,780.313 	"/>
	
		<line clip-path="url(#SVGID_2_)" fill="none" stroke="#BCBBBB" stroke-width="14" stroke-miterlimit="10" x1="472.809" y1="780.313" x2="472.809" y2="738.229"/>
	<g clip-path="url(#SVGID_2_)">
		<defs>
			<rect id="SVGID_3_" width="2433.954" height="1259"/>
		</defs>
		<clipPath id="SVGID_4_">
			<use xlink:href="#SVGID_3_"  overflow="visible"/>
		</clipPath>
		<path clip-path="url(#SVGID_4_)" fill="none" stroke="#BCBBBB" stroke-width="14" stroke-miterlimit="10" d="M472.809,738.229
			c0-17.355,12.98-31.427,28.992-31.427c7.944,0,15.141,3.463,20.377,9.073"/>
		<path clip-path="url(#SVGID_4_)" fill="#A08372" d="M429.204,889.037H202.033v-68.481h227.171V889.037z M429.954,819.806H201.283
			v69.981h228.671V819.806z"/>
		<path clip-path="url(#SVGID_4_)" fill="#A08372" d="M596.155,889.037H430.703v-68.481h165.452V889.037z M596.905,819.806H429.953
			v69.981h166.952V819.806z"/>
		<path clip-path="url(#SVGID_4_)" fill="#A08372" d="M753.421,889.037H597.655v-68.481h155.766V889.037z M754.171,819.806H596.905
			v69.981h157.266V819.806z"/>
		<path clip-path="url(#SVGID_4_)" fill="#A08372" d="M596.155,959.02H430.703v-68.481h165.452V959.02z M596.905,889.787H429.953
			v69.981h166.952V889.787z"/>
		<path clip-path="url(#SVGID_4_)" fill="#A08372" d="M753.421,959.02H597.655v-68.481h155.766V959.02z M754.171,889.787H596.905
			v69.981h157.266V889.787z"/>
		<path clip-path="url(#SVGID_4_)" fill="#A08372" d="M596.155,1029.001H430.703V960.52h165.452V1029.001z M596.905,959.77H429.953
			v69.981h166.952V959.77z"/>
		<path clip-path="url(#SVGID_4_)" fill="#A08372" d="M753.421,1029.001H597.655V960.52h155.766V1029.001z M754.171,959.77H596.905
			v69.981h157.266V959.77z"/>
		<path clip-path="url(#SVGID_4_)" fill="#A08372" d="M596.155,1098.982H430.703v-68.481h165.452V1098.982z M596.905,1029.751
			H429.953v69.981h166.952V1029.751z"/>
		<path clip-path="url(#SVGID_4_)" fill="#A08372" d="M753.421,1098.982H597.655v-68.481h155.766V1098.982z M754.171,1029.751
			H596.905v69.981h157.266V1029.751z"/>
		<path clip-path="url(#SVGID_4_)" fill="#A08372" d="M429.204,1188.497H202.033v-297.96h227.171V1188.497z M429.954,889.787
			H201.283v299.46h228.671V889.787z"/>
		<path clip-path="url(#SVGID_4_)" fill="#A08372" d="M753.421,1188.497H430.704v-88.015h322.717V1188.497z M754.171,1099.732
			H429.954v89.515h324.217V1099.732z"/>
		
			<line clip-path="url(#SVGID_4_)" fill="none" stroke="#A08372" stroke-width="0.5" stroke-miterlimit="10" x1="0" y1="780.313" x2="778.649" y2="780.313"/>
		<rect x="252.2" y="913.965" clip-path="url(#SVGID_4_)" fill="#808080" width="118.043" height="10.813"/>
		<rect x="252.2" y="849.39" clip-path="url(#SVGID_4_)" fill="#808080" width="118.043" height="10.813"/>
		<rect x="447.72" y="849.39" clip-path="url(#SVGID_4_)" fill="#808080" width="118.043" height="10.813"/>
		<rect x="447.72" y="913.965" clip-path="url(#SVGID_4_)" fill="#808080" width="118.043" height="10.813"/>
		<rect x="616.516" y="913.965" clip-path="url(#SVGID_4_)" fill="#808080" width="118.044" height="10.813"/>
		<rect x="616.516" y="849.39" clip-path="url(#SVGID_4_)" fill="#808080" width="118.044" height="10.813"/>
		<rect x="616.516" y="989.354" clip-path="url(#SVGID_4_)" fill="#808080" width="118.044" height="10.813"/>
		<rect x="449.172" y="989.354" clip-path="url(#SVGID_4_)" fill="#808080" width="118.043" height="10.813"/>
		<rect x="449.172" y="1059.335" clip-path="url(#SVGID_4_)" fill="#808080" width="118.043" height="10.813"/>
		<rect x="616.516" y="1059.335" clip-path="url(#SVGID_4_)" fill="#808080" width="118.044" height="10.813"/>
		<rect x="533.041" y="1139.083" clip-path="url(#SVGID_4_)" fill="#808080" width="118.043" height="10.813"/>
		<g opacity="0.25" clip-path="url(#SVGID_4_)">
			<g>
				<defs>
					<rect id="SVGID_5_" x="201.282" y="819.806" width="552.889" height="279.928"/>
				</defs>
				<clipPath id="SVGID_6_">
					<use xlink:href="#SVGID_5_"  overflow="visible"/>
				</clipPath>
				<polygon clip-path="url(#SVGID_6_)" fill="#494949" points="201.282,819.806 754.171,819.806 754.171,939.239 201.282,1099.732 
									"/>
			</g>
		</g>
		<path clip-path="url(#SVGID_4_)" fill="#C1C0BF" d="M2004.296,867.559H945.348c-3.156,0-5.715-2.559-5.715-5.715v-39.614
			c0-3.156,2.559-5.715,5.715-5.715h1058.948c3.156,0,5.715,2.559,5.715,5.715v39.614
			C2010.011,865,2007.452,867.559,2004.296,867.559"/>
		<path clip-path="url(#SVGID_4_)" fill="#A5A5A5" d="M1925.038,867.559H944.567c-2.725,0-4.934-2.209-4.934-4.934v-41.176
			c0-2.726,2.209-4.935,4.934-4.935h980.471c2.726,0,4.935,2.209,4.935,4.935v41.176
			C1929.973,865.35,1927.764,867.559,1925.038,867.559"/>
		<rect x="968.222" y="867.559" clip-path="url(#SVGID_4_)" fill="#D6D6D6" width="24.701" height="348.441"/>
		<polygon clip-path="url(#SVGID_4_)" fill="#C6C6C6" points="977.723,1216 968.222,1216 968.222,867.559 977.723,867.559 
			977.723,1041.217 		"/>
		<rect x="1118.031" y="867.559" clip-path="url(#SVGID_4_)" fill="#D6D6D6" width="22.746" height="348.441"/>
		<rect x="1962.753" y="867.559" clip-path="url(#SVGID_4_)" fill="#D6D6D6" width="29.382" height="348.441"/>
		<rect x="1887.92" y="867.559" clip-path="url(#SVGID_4_)" fill="#D6D6D6" width="27.181" height="348.441"/>
		<polygon clip-path="url(#SVGID_4_)" fill="#C6C6C6" points="1127.532,1216 1118.031,1216 1118.031,867.559 1127.532,867.559 
			1127.532,1041.217 		"/>
		<rect x="1887.92" y="867.559" clip-path="url(#SVGID_4_)" fill="#C6C6C6" width="11.051" height="348.441"/>
		<rect x="1962.753" y="867.559" clip-path="url(#SVGID_4_)" fill="#C6C6C6" width="11.051" height="348.441"/>
	</g>
	<g clip-path="url(#SVGID_2_)">
		<defs>
			<rect id="SVGID_7_" width="2433.954" height="1259"/>
		</defs>
		<clipPath id="SVGID_8_">
			<use xlink:href="#SVGID_7_"  overflow="visible"/>
		</clipPath>
		<path clip-path="url(#SVGID_8_)" fill="#6A89A5" d="M648.788,770.48l-0.249,4.859c-0.708,13.874,9.965,25.695,23.838,26.403
			l199.108,10.167c13.874,0.709,25.695-9.964,26.403-23.837l0.249-4.86c0.708-13.874-9.965-25.695-23.838-26.403l-199.108-10.167
			C661.317,745.934,649.496,756.606,648.788,770.48"/>
		<path clip-path="url(#SVGID_8_)" fill="#F2F2F2" d="M547.006,781.696c0.608,3.154,1.711,6.185,3.275,8.99
			c6.099,10.945,22.929,37.652,41.707,37.121l170.268-4.813l28.275-0.799c22.802-0.645,40.93-19.828,40.286-42.629l-0.962-34.018
			c-0.161-5.701-4.958-10.234-10.66-10.073l-22.719,0.863l-145.012,5.512c-6.243,0.237-12.405-1.466-17.639-4.876l-5.702-3.715
			c-8.066-5.255-13.144-14.04-13.674-23.652l-1.089-19.791c-0.595-10.826-6.947-20.503-16.643-25.355l-25.222-12.624
			c-5.289-2.646-11.239-3.684-17.111-2.98c-13.553,1.622-24.335,12.13-26.304,25.637l-4.422,30.322
			c-0.863,5.919,0.051,11.961,2.624,17.36l13.869,29.09c1.105,2.316,1.909,4.765,2.395,7.285L547.006,781.696z"/>
		
			<line clip-path="url(#SVGID_8_)" fill="none" stroke="#999999" stroke-miterlimit="10" x1="796.477" y1="736.339" x2="762.257" y2="822.994"/>
		
			<line clip-path="url(#SVGID_8_)" fill="none" stroke="#999999" stroke-miterlimit="10" x1="751.572" y1="738.046" x2="716.74" y2="824.281"/>
		<polyline clip-path="url(#SVGID_8_)" fill="none" stroke="#999999" stroke-miterlimit="10" points="686.095,740.534 
			676.187,766.481 653.433,826.071 		"/>
		
			<line clip-path="url(#SVGID_8_)" fill="none" stroke="#999999" stroke-miterlimit="10" x1="728.41" y1="795.389" x2="674.71" y2="769.344"/>
		
			<line clip-path="url(#SVGID_8_)" fill="none" stroke="#999999" stroke-miterlimit="10" x1="786.576" y1="761.412" x2="747.186" y2="748.905"/>
		
			<line clip-path="url(#SVGID_8_)" fill="none" stroke="#999999" stroke-miterlimit="10" x1="736.47" y1="775.436" x2="682.457" y2="750.064"/>
		
			<line clip-path="url(#SVGID_8_)" fill="none" stroke="#999999" stroke-miterlimit="10" x1="828.01" y1="795.73" x2="780.978" y2="775.589"/>
		
			<line clip-path="url(#SVGID_8_)" fill="none" stroke="#999999" stroke-miterlimit="10" x1="830.336" y1="762.57" x2="816.26" y2="790.699"/>
		
			<line clip-path="url(#SVGID_8_)" fill="none" stroke="#999999" stroke-miterlimit="10" x1="798.937" y1="783.28" x2="778.264" y2="822.542"/>
		
			<line clip-path="url(#SVGID_8_)" fill="none" stroke="#999999" stroke-miterlimit="10" x1="635.287" y1="737.867" x2="594.38" y2="827.74"/>
		
			<line clip-path="url(#SVGID_8_)" fill="none" stroke="#999999" stroke-miterlimit="10" x1="667.445" y1="789.375" x2="622.536" y2="765.88"/>
		
			<line clip-path="url(#SVGID_8_)" fill="none" stroke="#999999" stroke-miterlimit="10" x1="611.037" y1="791.145" x2="538.87" y2="748.579"/>
		
			<line clip-path="url(#SVGID_8_)" fill="none" stroke="#999999" stroke-miterlimit="10" x1="616.337" y1="718.57" x2="584.682" y2="774.91"/>
		
			<line clip-path="url(#SVGID_8_)" fill="none" stroke="#999999" stroke-miterlimit="10" x1="596.717" y1="664.461" x2="549.809" y2="752.787"/>
		
			<line clip-path="url(#SVGID_8_)" fill="none" stroke="#999999" stroke-miterlimit="10" x1="572.961" y1="768.687" x2="555.291" y2="799.002"/>
		
			<line clip-path="url(#SVGID_8_)" fill="none" stroke="#999999" stroke-miterlimit="10" x1="576.725" y1="702.106" x2="528.08" y2="674.493"/>
		
			<line clip-path="url(#SVGID_8_)" fill="none" stroke="#999999" stroke-miterlimit="10" x1="562.14" y1="729.569" x2="523.659" y2="704.815"/>
		
			<line clip-path="url(#SVGID_8_)" fill="none" stroke="#999999" stroke-miterlimit="10" x1="608.307" y1="732.861" x2="572.716" y2="709.654"/>
		<polygon clip-path="url(#SVGID_8_)" fill="#E0B4A6" points="446.409,516.597 399.309,516.597 388.263,473.605 457.455,473.605 		
			"/>
		<path clip-path="url(#SVGID_8_)" fill="#F7C7B5" d="M476.155,489.285H369.563c-11.36,0-19.738-11.08-18.738-24.409l6.409-85.397
			c2.803-37.355,32.24-65.625,65.625-65.625c33.385,0,62.822,28.27,65.625,65.625l6.408,85.397
			C495.893,478.205,487.515,489.285,476.155,489.285"/>
		<path clip-path="url(#SVGID_8_)" fill="#A87135" d="M534.037,735.661L534.037,735.661c-11.639,7.897-27.624,4.839-35.522-6.799
			l-88.601-130.55c-7.898-11.637-4.838-27.623,6.8-35.521c11.638-7.899,27.623-4.839,35.522,6.8l88.6,130.549
			C548.735,711.777,545.675,727.763,534.037,735.661"/>
		<path clip-path="url(#SVGID_8_)" fill="#D19988" d="M493.021,729.572L493.021,729.572c-7.573-11.854-4.071-27.747,7.782-35.319
			l132.958-84.943c11.853-7.573,27.747-4.07,35.32,7.783c7.572,11.853,4.07,27.748-7.783,35.319L528.34,737.354
			C516.487,744.928,500.594,741.427,493.021,729.572"/>
		<path clip-path="url(#SVGID_8_)" fill="#1D825E" d="M390.45,1083.387L390.45,1083.387c-11.892,0-21.621-9.729-21.621-21.621
			V898.941c0-11.892,9.729-21.621,21.621-21.621s21.621,9.729,21.621,21.621v162.824
			C412.071,1073.658,402.342,1083.387,390.45,1083.387"/>
		<path clip-path="url(#SVGID_8_)" fill="#176347" d="M444.48,1083.387L444.48,1083.387c-11.892,0-21.621-9.729-21.621-21.621
			V898.941c0-11.892,9.729-21.621,21.621-21.621s21.622,9.729,21.622,21.621v162.824
			C466.102,1073.658,456.372,1083.387,444.48,1083.387"/>
		<path clip-path="url(#SVGID_8_)" fill="#239670" d="M474.711,918.58H364.254c-4.515,0-8.472-3.709-8.797-8.285l-22.753-320.081
			c-3.177-44.692,21.602-83.767,55.281-83.767h62.995c33.68,0,58.458,39.075,55.281,83.767l-22.752,320.081
			C483.184,914.871,479.226,918.58,474.711,918.58"/>
		<path clip-path="url(#SVGID_8_)" fill="#176347" d="M422.859,1219.716v-155.618c0-13.873,9.729-25.224,21.621-25.224
			s21.622,11.351,21.622,25.224v155.618"/>
		<path clip-path="url(#SVGID_8_)" fill="#F7C7B5" d="M540.434,759.941L540.434,759.941c-11.638,7.899-24.544,10.939-29.009,6.424
			L408.683,662.448c-19.698-19.924-14.85-55.506,14.428-75.377c29.278-19.87,64.136-11.234,75.376,14.429l58.629,133.855
			C559.664,741.173,552.071,752.043,540.434,759.941"/>
		<path clip-path="url(#SVGID_8_)" fill="#21726E" d="M422.859,1219.716c0-28.758,21.537-52.071,48.105-52.071
			c26.567,0,48.105,23.313,48.105,52.071"/>
		<path clip-path="url(#SVGID_8_)" fill="#1D825E" d="M368.68,1219.716v-155.618c0-13.873,9.729-25.224,21.622-25.224
			c11.891,0,21.621,11.351,21.621,25.224v155.618"/>
		<path clip-path="url(#SVGID_8_)" fill="#32A5A2" d="M368.68,1219.716c0-28.758,21.538-52.071,48.105-52.071
			c26.568,0,48.105,23.313,48.105,52.071"/>
		<polygon clip-path="url(#SVGID_8_)" fill="#1C1B19" points="672.628,697.701 642.46,678.823 664.261,505.31 694.429,524.187 		"/>
		<polygon clip-path="url(#SVGID_8_)" fill="#1C1B19" points="670.482,697.432 640.313,678.554 662.114,505.041 692.283,523.917 		
			"/>
		<polygon clip-path="url(#SVGID_8_)" fill="#4F4E4C" points="669.527,675.456 646.25,660.893 663.071,527.016 686.348,541.581 		
			"/>
		<polygon clip-path="url(#SVGID_8_)" fill="#878787" points="660.02,551.301 679.17,598.699 677.473,612.22 658.401,564.177 		"/>
		<polygon clip-path="url(#SVGID_8_)" fill="#878787" points="656.42,579.95 675.571,627.348 674.681,634.431 655.611,586.387 		"/>
		<path clip-path="url(#SVGID_8_)" fill="none" stroke="#878787" stroke-miterlimit="10" d="M658.149,679.228
			c-0.407,3.239-1.422,5.437-2.267,4.908s-1.2-3.583-0.793-6.823c0.407-3.24,1.422-5.438,2.268-4.909
			C658.201,672.933,658.557,675.987,658.149,679.228z"/>
		<path clip-path="url(#SVGID_8_)" fill="#F7C7B5" d="M499.418,753.853L499.418,753.853c-7.573-11.853,1.492-31.845,18.78-43.507
			l128.322-86.561c7.673-5.177,17.421-3.309,22.028,3.902c4.607,7.212,2.768,17.723-4.431,23.641L543.724,750.3
			C527.503,763.634,506.991,765.706,499.418,753.853"/>
		<path clip-path="url(#SVGID_8_)" fill="#239670" d="M348.154,361.811l10.058-69.08c1.029-7.072,7.094-12.318,14.241-12.318
			h100.812c7.147,0,13.212,5.246,14.242,12.318l10.057,69.08c0.97,6.66-4.195,12.631-10.925,12.631h-127.56
			C352.349,374.441,347.184,368.471,348.154,361.811"/>
		<path clip-path="url(#SVGID_8_)" fill="#F5F7F7" d="M500.341,342.797c-4.338,0.702-9.615-9.6-11.787-23.011
			c-2.171-13.41-0.415-24.852,3.923-25.554"/>
		<polyline clip-path="url(#SVGID_8_)" fill="#239670" points="510.951,629.956 452.021,718.049 370.372,637.914 402.721,552.607 
			452.569,538.236 496.724,579.05 510.951,632.626 		"/>
		<path clip-path="url(#SVGID_8_)" fill="#DDA797" d="M1129.902,483.74l42.424,0.121l0.114-40.317
			c0.017-5.578-4.535-10.156-10.113-10.172l-22.139-0.063c-5.578-0.015-10.155,4.535-10.171,10.115L1129.902,483.74z"/>
		<path clip-path="url(#SVGID_8_)" fill="#3A251E" d="M1134.399,406.513c27.469,15.744,60.691,9.396,74.203-14.178
			c13.513-23.575,2.198-55.449-25.271-71.194c-27.47-15.745-60.691-9.397-74.204,14.178
			C1095.615,358.894,1106.929,390.768,1134.399,406.513"/>
		<path clip-path="url(#SVGID_8_)" fill="#F7C7B5" d="M1102.873,442.458l82.303,7.42c1.398,0.127,2.634-0.905,2.76-2.304l5.203-57.7
			c2.166-24.025-15.719-45.455-39.745-47.622c-24.026-2.166-45.456,15.719-47.623,39.745l-5.202,57.7
			C1100.443,441.096,1101.475,442.332,1102.873,442.458"/>
		<path clip-path="url(#SVGID_8_)" fill="#3A251E" d="M1125.96,366.799c9.076,5.202,20.651,2.062,25.854-7.015
			c5.201-9.075,2.061-20.65-7.015-25.852c-9.076-5.202-20.651-2.062-25.853,7.014
			C1113.744,350.023,1116.885,361.597,1125.96,366.799"/>
		<path clip-path="url(#SVGID_8_)" fill="#3A251E" d="M1161.41,389.406c13.451,7.709,30.604,3.056,38.313-10.396
			c7.71-13.45,3.056-30.604-10.394-38.313c-13.451-7.709-30.605-3.056-38.315,10.396
			C1143.306,364.543,1147.96,381.696,1161.41,389.406"/>
		<path clip-path="url(#SVGID_8_)" fill="#3A251E" d="M1150.957,379.638c13.45,7.709,30.604,3.055,38.313-10.396
			c7.71-13.45,3.056-30.604-10.395-38.313c-13.45-7.709-30.604-3.055-38.314,10.396
			C1132.853,354.775,1137.507,371.928,1150.957,379.638"/>
		<path clip-path="url(#SVGID_8_)" fill="#3A251E" d="M1166.943,408.196c13.451,7.709,30.604,3.055,38.313-10.396
			c7.71-13.45,3.056-30.604-10.394-38.313c-13.451-7.709-30.605-3.056-38.315,10.396
			C1148.839,383.333,1153.493,400.486,1166.943,408.196"/>
		<path clip-path="url(#SVGID_8_)" fill="#6A89A5" d="M860.264,777.206v16.997c0,11.237,9.194,20.433,20.433,20.433H1142.8
			c3.178,0,5.78-2.602,5.78-5.78v-28.978c0-12.708-10.398-23.104-23.106-23.104H880.697
			C869.458,756.773,860.264,765.968,860.264,777.206"/>
		<path clip-path="url(#SVGID_8_)" fill="#84A9D1" d="M908.621,775.819v16.997c0,11.237,9.195,20.433,20.433,20.433h262.102
			c3.18,0,5.78-2.602,5.78-5.78v-28.978c0-12.708-10.396-23.104-23.104-23.104H929.054
			C917.816,755.387,908.621,764.581,908.621,775.819"/>
		<path clip-path="url(#SVGID_8_)" fill="#84A9D1" d="M823.621,958.717l45.657,20.033c0.226,0.1,0.49-0.004,0.59-0.23
			l81.182-185.023c5.582-12.722-0.206-27.559-12.927-33.141c-12.721-5.581-27.559,0.206-33.14,12.928L823.621,958.717z"/>
		<path clip-path="url(#SVGID_8_)" fill="#EAE4A2" d="M1192.23,785.387l-69.143,0.317c-2.826,0.014-5.33-3.514-5.566-7.88
			l-13.102-241.959c-2.124-39.211,12.58-73.614,32.823-73.707l37.861-0.174c20.242-0.093,35.262,34.173,33.499,73.401
			l-10.878,242.07C1197.528,781.823,1195.058,785.374,1192.23,785.387"/>
		<path clip-path="url(#SVGID_8_)" fill="#84A9D1" d="M1199.843,729.69l-2.141,47.636c-0.196,4.368-2.668,7.918-5.494,7.931
			l-69.143,0.318c-2.827,0.013-5.33-3.515-5.567-7.881l-2.455-45.332"/>
		<path clip-path="url(#SVGID_8_)" fill="#DDD497" d="M1159.896,645.154L1159.896,645.154c11.892,0.05,21.662-9.638,21.713-21.529
			l0.565-133.391c0.051-11.892-9.637-21.662-21.529-21.713c-11.892-0.051-21.662,9.638-21.713,21.529l-0.565,133.391
			C1138.316,635.333,1148.004,645.104,1159.896,645.154"/>
		<path clip-path="url(#SVGID_8_)" fill="#DDD497" d="M1060.301,750.105L1060.301,750.105c9.417,7.734,23.449,6.356,31.184-3.061
			l83.98-102.256c7.733-9.417,6.357-23.451-3.06-31.184c-9.417-7.734-23.45-6.357-31.184,3.06l-83.981,102.256
			C1049.507,728.339,1050.884,742.371,1060.301,750.105"/>
		<path clip-path="url(#SVGID_8_)" fill="#19100D" d="M1114.505,396.251c2.691,1.542,6.124,0.611,7.666-2.08
			c1.543-2.691,0.611-6.123-2.08-7.666c-2.69-1.542-6.123-0.611-7.665,2.08C1110.883,391.276,1111.815,394.708,1114.505,396.251"/>
		<path clip-path="url(#SVGID_8_)" fill="#2D2929" d="M879.49,973.747L879.49,973.747c3.044-5.144,1.546-10.979-3.33-12.97
			l-16.361-6.678c-4.876-1.991-11.356,0.588-14.4,5.73v0.001c-3.045,5.144-1.546,10.979,3.33,12.97l16.361,6.679
			C869.966,981.47,876.446,978.89,879.49,973.747"/>
		<path clip-path="url(#SVGID_8_)" fill="#2D2929" d="M854.568,975.254c8.783-15.563,3.875-32.721-10.96-38.324
			s-33.982,2.471-42.764,18.032"/>
		<path clip-path="url(#SVGID_8_)" fill="none" stroke="#3A251E" stroke-width="3" stroke-miterlimit="10" d="M1103.226,419.691
			l1.383,0.486c4.915,1.73,10.276,1.709,15.178-0.059l0.592-0.214"/>
		<path clip-path="url(#SVGID_8_)" fill="#F7C7B5" d="M1050.804,764.247L1050.804,764.247c8.516,5.948,20.35,3.848,26.297-4.668
			l2.462-3.524c5.948-8.516,3.847-20.35-4.668-26.297c-8.516-5.948-20.349-3.848-26.297,4.668l-2.462,3.524
			C1040.188,746.466,1042.288,758.3,1050.804,764.247"/>
		<path clip-path="url(#SVGID_8_)" fill="#D6D6D6" d="M1923.231,769.171l-25.18,45.243l122.186,0.869
			c-5.475-13.185-17.598-36.954-34.477-38.901L1923.231,769.171z"/>
		<path clip-path="url(#SVGID_8_)" fill="#D6D6D6" d="M1788.446,753.626c-22.66-2.613-43.339,13.788-45.952,36.449l-2.678,23.215
			l158.234,1.124l25.181-45.243l-106.686-12.305L1788.446,753.626z"/>
		<path clip-path="url(#SVGID_8_)" fill="#D6D6D6" d="M1663.882,788.725l-22.611-2.368l-144.329-15.115
			c-6.213-0.65-12.07-3.211-16.769-7.328l-5.116-4.486c-7.239-6.347-11.021-15.763-10.181-25.354l1.729-19.745
			c0.946-10.801-3.969-21.281-12.878-27.459l-23.176-16.075c-4.86-3.37-10.603-5.24-16.516-5.378
			c-13.646-0.316-25.81,8.556-29.675,21.646l-8.679,29.388c-1.694,5.737-1.646,11.848,0.136,17.557l9.602,30.765
			c0.765,2.449,1.214,4.986,1.337,7.55l1.132,23.545c0.154,3.208,0.816,6.364,1.967,9.364c0.428,1.118,0.935,2.395,1.514,3.787
			l280.422,1.783l1.214-10.593C1673.654,794.541,1669.549,789.373,1663.882,788.725"/>
	</g>
</g>
</svg>
