<?xml version="1.0" encoding="utf-8"?>
<!-- Generator: Adobe Illustrator 16.0.0, SVG Export Plug-In . SVG Version: 6.00 Build 0)  -->
<!DOCTYPE svg PUBLIC "-//W3C//DTD SVG 1.1//EN" "http://www.w3.org/Graphics/SVG/1.1/DTD/svg11.dtd">
<svg version="1.1" id="Laag_1" xmlns="http://www.w3.org/2000/svg" xmlns:xlink="http://www.w3.org/1999/xlink" x="0px" y="0px"
	 width="2433.95px" height="1259px" viewBox="0 0 2433.95 1259" enable-background="new 0 0 2433.95 1259" xml:space="preserve">
<rect fill="#FFF1D7" width="2433.954" height="1168.485"/>
<rect y="1168.485" fill="#E2CFAF" width="2433.954" height="90.515"/>
<g>
	<defs>
		<rect id="SVGID_1_" width="2433.954" height="1259"/>
	</defs>
	<clipPath id="SVGID_2_">
		<use xlink:href="#SVGID_1_"  overflow="visible"/>
	</clipPath>
	<path clip-path="url(#SVGID_2_)" fill="#BCB269" d="M788.071,871.213L788.071,871.213c-7.947-7.947-7.947-20.95,0-28.896
		l96.003-96.003c7.946-7.946,20.95-7.946,28.896,0s7.946,20.95,0,28.896l-96.003,96.003
		C809.021,879.159,796.017,879.159,788.071,871.213"/>
	<rect x="1485.645" y="27.767" clip-path="url(#SVGID_2_)" fill="#D8C7AB" width="656.514" height="1103.129"/>
	<rect x="1524.69" y="69.15" clip-path="url(#SVGID_2_)" fill="#CCECED" width="578.423" height="1020.364"/>
	<polygon clip-path="url(#SVGID_2_)" fill="#DFF2F2" points="1827.578,233.94 2102.554,338.652 2102.554,495.721 1827.578,395.917 	
		"/>
	<polygon clip-path="url(#SVGID_2_)" fill="#DFF2F2" points="1524.69,425.939 1813.901,530.651 1813.901,687.72 1524.69,587.917 	
		"/>
	<polygon clip-path="url(#SVGID_2_)" fill="#DFF2F2" points="1524.69,621.204 1813.901,725.916 1813.901,775.84 1524.69,676.036 	
		"/>
	<rect x="1800.225" y="69.15" clip-path="url(#SVGID_2_)" fill="#D8C7AB" width="27.354" height="1020.364"/>
	<rect x="572.618" y="1052.162" clip-path="url(#SVGID_2_)" fill="#42251A" width="402.802" height="116.601"/>
	<path clip-path="url(#SVGID_2_)" fill="#774836" d="M572.618,956.762v95.4H975.42v-95.4c0-29.225,23.776-53,53-53v-62.838
		c0-17.988-14.586-32.563-32.563-32.563H552.181c-17.978,0-32.563,14.586-32.563,32.563v62.838
		C548.842,903.762,572.618,927.537,572.618,956.762"/>
	<path clip-path="url(#SVGID_2_)" fill="#382016" d="M995.857,797.761H552.182c-23.798,0-43.164,19.366-43.164,43.163v73.438h10.6
		c3.678,0,7.187,0.615,10.6,1.504v-21.824v-22.08v-31.037c0-12.104,9.858-21.963,21.964-21.963h443.665
		c12.116,0,21.974,9.858,21.974,21.963v31.037v22.08v21.824c3.414-0.889,6.922-1.504,10.6-1.504h10.6v-73.438
		C1039.021,817.127,1019.654,797.761,995.857,797.761"/>
	<rect x="572.618" y="999.162" clip-path="url(#SVGID_2_)" fill="#382016" width="402.802" height="53"/>
	<path clip-path="url(#SVGID_2_)" fill="#382016" d="M540.818,808.36c5.854,0,10.6,4.746,10.6,10.601s-4.746,10.6-10.6,10.6
		s-10.6-4.745-10.6-10.6S534.964,808.36,540.818,808.36"/>
	<path clip-path="url(#SVGID_2_)" fill="#382016" d="M572.618,840.161c5.854,0,10.6,4.745,10.6,10.6s-4.746,10.601-10.6,10.601
		s-10.6-4.746-10.6-10.601S566.764,840.161,572.618,840.161"/>
	<path clip-path="url(#SVGID_2_)" fill="#382016" d="M604.418,808.36c5.854,0,10.6,4.746,10.6,10.601s-4.746,10.6-10.6,10.6
		s-10.6-4.745-10.6-10.6S598.564,808.36,604.418,808.36"/>
	<path clip-path="url(#SVGID_2_)" fill="#382016" d="M668.019,808.36c5.854,0,10.6,4.746,10.6,10.601s-4.746,10.6-10.6,10.6
		s-10.6-4.745-10.6-10.6S662.165,808.36,668.019,808.36"/>
	<path clip-path="url(#SVGID_2_)" fill="#382016" d="M636.218,840.161c5.854,0,10.6,4.745,10.6,10.6s-4.746,10.601-10.6,10.601
		s-10.6-4.746-10.6-10.601S630.364,840.161,636.218,840.161"/>
	<path clip-path="url(#SVGID_2_)" fill="#382016" d="M699.819,840.161c5.854,0,10.6,4.745,10.6,10.6s-4.746,10.601-10.6,10.601
		s-10.6-4.746-10.6-10.601S693.965,840.161,699.819,840.161"/>
	<path clip-path="url(#SVGID_2_)" fill="#382016" d="M731.619,808.36c5.854,0,10.6,4.746,10.6,10.601s-4.746,10.6-10.6,10.6
		s-10.6-4.745-10.6-10.6S725.765,808.36,731.619,808.36"/>
	<path clip-path="url(#SVGID_2_)" fill="#382016" d="M795.219,808.36c5.854,0,10.6,4.746,10.6,10.601s-4.746,10.6-10.6,10.6
		s-10.6-4.745-10.6-10.6S789.365,808.36,795.219,808.36"/>
	<path clip-path="url(#SVGID_2_)" fill="#382016" d="M763.419,840.161c5.854,0,10.6,4.745,10.6,10.6s-4.746,10.601-10.6,10.601
		s-10.6-4.746-10.6-10.601S757.565,840.161,763.419,840.161"/>
	<path clip-path="url(#SVGID_2_)" fill="#382016" d="M827.02,840.161c5.854,0,10.6,4.745,10.6,10.6s-4.746,10.601-10.6,10.601
		s-10.6-4.746-10.6-10.601S821.166,840.161,827.02,840.161"/>
	<path clip-path="url(#SVGID_2_)" fill="#382016" d="M858.82,808.36c5.854,0,10.6,4.746,10.6,10.601s-4.746,10.6-10.6,10.6
		s-10.6-4.745-10.6-10.6S852.966,808.36,858.82,808.36"/>
	<path clip-path="url(#SVGID_2_)" fill="#382016" d="M922.42,808.36c5.854,0,10.6,4.746,10.6,10.601s-4.746,10.6-10.6,10.6
		s-10.6-4.745-10.6-10.6S916.566,808.36,922.42,808.36"/>
	<path clip-path="url(#SVGID_2_)" fill="#382016" d="M890.62,840.161c5.854,0,10.6,4.745,10.6,10.6s-4.746,10.601-10.6,10.601
		s-10.6-4.746-10.6-10.601S884.766,840.161,890.62,840.161"/>
	<path clip-path="url(#SVGID_2_)" fill="#382016" d="M954.22,840.161c5.854,0,10.6,4.745,10.6,10.6s-4.746,10.601-10.6,10.601
		s-10.6-4.746-10.6-10.601S948.366,840.161,954.22,840.161"/>
	<path clip-path="url(#SVGID_2_)" fill="#382016" d="M986.021,808.36c5.854,0,10.6,4.746,10.6,10.601s-4.746,10.6-10.6,10.6
		s-10.6-4.745-10.6-10.6S980.167,808.36,986.021,808.36"/>
	<path clip-path="url(#SVGID_2_)" fill="#382016" d="M1017.82,840.161c5.854,0,10.601,4.745,10.601,10.6
		s-4.747,10.601-10.601,10.601s-10.6-4.746-10.6-10.601S1011.966,840.161,1017.82,840.161"/>
	<path clip-path="url(#SVGID_2_)" fill="#382016" d="M540.818,871.961c5.854,0,10.6,4.746,10.6,10.601c0,5.854-4.746,10.6-10.6,10.6
		s-10.6-4.746-10.6-10.6C530.218,876.707,534.964,871.961,540.818,871.961"/>
	<path clip-path="url(#SVGID_2_)" fill="#382016" d="M572.618,903.762c5.854,0,10.6,4.745,10.6,10.6s-4.746,10.601-10.6,10.601
		s-10.6-4.746-10.6-10.601S566.764,903.762,572.618,903.762"/>
	<path clip-path="url(#SVGID_2_)" fill="#382016" d="M572.618,967.361c5.854,0,10.6,4.746,10.6,10.601s-4.746,10.6-10.6,10.6
		s-10.6-4.745-10.6-10.6S566.764,967.361,572.618,967.361"/>
	<path clip-path="url(#SVGID_2_)" fill="#382016" d="M604.418,871.961c5.854,0,10.6,4.746,10.6,10.601c0,5.854-4.746,10.6-10.6,10.6
		s-10.6-4.746-10.6-10.6C593.818,876.707,598.564,871.961,604.418,871.961"/>
	<path clip-path="url(#SVGID_2_)" fill="#382016" d="M668.019,871.961c5.854,0,10.6,4.746,10.6,10.601c0,5.854-4.746,10.6-10.6,10.6
		s-10.6-4.746-10.6-10.6C657.418,876.707,662.165,871.961,668.019,871.961"/>
	<path clip-path="url(#SVGID_2_)" fill="#382016" d="M604.418,935.562c5.854,0,10.6,4.746,10.6,10.6
		c0,5.854-4.746,10.601-10.6,10.601s-10.6-4.746-10.6-10.601C593.818,940.308,598.564,935.562,604.418,935.562"/>
	<path clip-path="url(#SVGID_2_)" fill="#382016" d="M668.019,935.562c5.854,0,10.6,4.746,10.6,10.6
		c0,5.854-4.746,10.601-10.6,10.601s-10.6-4.746-10.6-10.601C657.418,940.308,662.165,935.562,668.019,935.562"/>
	<path clip-path="url(#SVGID_2_)" fill="#382016" d="M636.218,903.762c5.854,0,10.6,4.745,10.6,10.6s-4.746,10.601-10.6,10.601
		s-10.6-4.746-10.6-10.601S630.364,903.762,636.218,903.762"/>
	<path clip-path="url(#SVGID_2_)" fill="#382016" d="M699.819,903.762c5.854,0,10.6,4.745,10.6,10.6s-4.746,10.601-10.6,10.601
		s-10.6-4.746-10.6-10.601S693.965,903.762,699.819,903.762"/>
	<path clip-path="url(#SVGID_2_)" fill="#382016" d="M636.218,967.361c5.854,0,10.6,4.746,10.6,10.601s-4.746,10.6-10.6,10.6
		s-10.6-4.745-10.6-10.6S630.364,967.361,636.218,967.361"/>
	<path clip-path="url(#SVGID_2_)" fill="#382016" d="M699.819,967.361c5.854,0,10.6,4.746,10.6,10.601s-4.746,10.6-10.6,10.6
		s-10.6-4.745-10.6-10.6S693.965,967.361,699.819,967.361"/>
	<path clip-path="url(#SVGID_2_)" fill="#382016" d="M731.619,871.961c5.854,0,10.6,4.746,10.6,10.601c0,5.854-4.746,10.6-10.6,10.6
		s-10.6-4.746-10.6-10.6C721.019,876.707,725.765,871.961,731.619,871.961"/>
	<path clip-path="url(#SVGID_2_)" fill="#382016" d="M795.219,871.961c5.854,0,10.6,4.746,10.6,10.601c0,5.854-4.746,10.6-10.6,10.6
		s-10.6-4.746-10.6-10.6C784.619,876.707,789.365,871.961,795.219,871.961"/>
	<path clip-path="url(#SVGID_2_)" fill="#382016" d="M731.619,935.562c5.854,0,10.6,4.746,10.6,10.6
		c0,5.854-4.746,10.601-10.6,10.601s-10.6-4.746-10.6-10.601C721.019,940.308,725.765,935.562,731.619,935.562"/>
	<path clip-path="url(#SVGID_2_)" fill="#382016" d="M795.219,935.562c5.854,0,10.6,4.746,10.6,10.6
		c0,5.854-4.746,10.601-10.6,10.601s-10.6-4.746-10.6-10.601C784.619,940.308,789.365,935.562,795.219,935.562"/>
	<path clip-path="url(#SVGID_2_)" fill="#382016" d="M763.419,903.762c5.854,0,10.6,4.745,10.6,10.6s-4.746,10.601-10.6,10.601
		s-10.6-4.746-10.6-10.601S757.565,903.762,763.419,903.762"/>
	<path clip-path="url(#SVGID_2_)" fill="#382016" d="M827.02,903.762c5.854,0,10.6,4.745,10.6,10.6s-4.746,10.601-10.6,10.601
		s-10.6-4.746-10.6-10.601S821.166,903.762,827.02,903.762"/>
	<path clip-path="url(#SVGID_2_)" fill="#382016" d="M763.419,967.361c5.854,0,10.6,4.746,10.6,10.601s-4.746,10.6-10.6,10.6
		s-10.6-4.745-10.6-10.6S757.565,967.361,763.419,967.361"/>
	<path clip-path="url(#SVGID_2_)" fill="#382016" d="M827.02,967.361c5.854,0,10.6,4.746,10.6,10.601s-4.746,10.6-10.6,10.6
		s-10.6-4.745-10.6-10.6S821.166,967.361,827.02,967.361"/>
	<path clip-path="url(#SVGID_2_)" fill="#382016" d="M858.82,871.961c5.854,0,10.6,4.746,10.6,10.601c0,5.854-4.746,10.6-10.6,10.6
		s-10.6-4.746-10.6-10.6C848.22,876.707,852.966,871.961,858.82,871.961"/>
	<path clip-path="url(#SVGID_2_)" fill="#382016" d="M922.42,871.961c5.854,0,10.6,4.746,10.6,10.601c0,5.854-4.746,10.6-10.6,10.6
		s-10.6-4.746-10.6-10.6C911.82,876.707,916.566,871.961,922.42,871.961"/>
	<path clip-path="url(#SVGID_2_)" fill="#382016" d="M858.82,935.562c5.854,0,10.6,4.746,10.6,10.6
		c0,5.854-4.746,10.601-10.6,10.601s-10.6-4.746-10.6-10.601C848.22,940.308,852.966,935.562,858.82,935.562"/>
	<path clip-path="url(#SVGID_2_)" fill="#382016" d="M922.42,935.562c5.854,0,10.6,4.746,10.6,10.6
		c0,5.854-4.746,10.601-10.6,10.601s-10.6-4.746-10.6-10.601C911.82,940.308,916.566,935.562,922.42,935.562"/>
	<path clip-path="url(#SVGID_2_)" fill="#382016" d="M890.62,903.762c5.854,0,10.6,4.745,10.6,10.6s-4.746,10.601-10.6,10.601
		s-10.6-4.746-10.6-10.601S884.766,903.762,890.62,903.762"/>
	<path clip-path="url(#SVGID_2_)" fill="#382016" d="M954.22,903.762c5.854,0,10.6,4.745,10.6,10.6s-4.746,10.601-10.6,10.601
		s-10.6-4.746-10.6-10.601S948.366,903.762,954.22,903.762"/>
	<path clip-path="url(#SVGID_2_)" fill="#382016" d="M890.62,967.361c5.854,0,10.6,4.746,10.6,10.601s-4.746,10.6-10.6,10.6
		s-10.6-4.745-10.6-10.6S884.766,967.361,890.62,967.361"/>
	<path clip-path="url(#SVGID_2_)" fill="#382016" d="M954.22,967.361c5.854,0,10.6,4.746,10.6,10.601s-4.746,10.6-10.6,10.6
		s-10.6-4.745-10.6-10.6S948.366,967.361,954.22,967.361"/>
	<path clip-path="url(#SVGID_2_)" fill="#382016" d="M986.021,871.961c5.854,0,10.6,4.746,10.6,10.601c0,5.854-4.746,10.6-10.6,10.6
		s-10.6-4.746-10.6-10.6C975.42,876.707,980.167,871.961,986.021,871.961"/>
	<path clip-path="url(#SVGID_2_)" fill="#553323" d="M975.42,956.762v212.001h53v-159.001c29.225,0,53-23.775,53-53
		s-23.775-53-53-53C999.196,903.762,975.42,927.537,975.42,956.762"/>
	<path clip-path="url(#SVGID_2_)" fill="#382016" d="M1039.021,946.161c-5.851,0-10.6,4.749-10.6,10.601v53
		c7.547,0,14.692-1.632,21.201-4.494v-48.506C1049.622,950.91,1044.873,946.161,1039.021,946.161"/>
	<path clip-path="url(#SVGID_2_)" fill="#553323" d="M519.618,903.762c-29.224,0-53,23.775-53,53s23.776,53,53,53v159.001h53
		V956.762C572.618,927.537,548.843,903.762,519.618,903.762"/>
	<path clip-path="url(#SVGID_2_)" fill="#382016" d="M519.618,1009.762v-53c0-5.852-4.749-10.601-10.6-10.601
		s-10.6,4.749-10.6,10.601v48.506C504.927,1008.13,512.071,1009.762,519.618,1009.762"/>
</g>
<g>
	<defs>
		<rect id="SVGID_3_" width="2433.954" height="1259"/>
	</defs>
	<clipPath id="SVGID_4_">
		<use xlink:href="#SVGID_3_"  overflow="visible"/>
	</clipPath>
	<path clip-path="url(#SVGID_4_)" fill="#DDA797" d="M1025.059,824.373l17.706,38.553l36.638-16.827
		c5.069-2.329,7.312-8.381,4.984-13.45l-9.239-20.118c-2.328-5.069-8.381-7.313-13.451-4.983L1025.059,824.373z"/>
	<path clip-path="url(#SVGID_4_)" fill="#3A251E" d="M1096.309,798.985c0,31.661,22.027,57.328,49.2,57.328
		c27.172,0,49.2-25.667,49.2-57.328c0-31.662-22.028-57.329-49.2-57.329C1118.335,741.656,1096.309,767.323,1096.309,798.985"/>
	<path clip-path="url(#SVGID_4_)" fill="#F7C7B5" d="M1049.445,789.508l34.489,75.096c0.586,1.275,2.095,1.835,3.371,1.249
		l52.648-24.18c21.922-10.067,31.62-36.241,21.552-58.163s-36.242-31.62-58.164-21.553l-52.647,24.18
		C1049.418,786.723,1048.859,788.232,1049.445,789.508"/>
	<path clip-path="url(#SVGID_4_)" fill="#3A251E" d="M1126.567,771.915c0,10.461,8.479,18.941,18.941,18.941
		c10.461,0,18.942-8.48,18.942-18.941s-8.481-18.941-18.942-18.941C1135.046,752.974,1126.567,761.454,1126.567,771.915"/>
	<path clip-path="url(#SVGID_4_)" fill="#3A251E" d="M1124.581,813.913c0,15.504,12.568,28.071,28.071,28.071
		c15.504,0,28.072-12.567,28.072-28.071c0-15.503-12.568-28.071-28.072-28.071C1137.149,785.842,1124.581,798.41,1124.581,813.913"
		/>
	<path clip-path="url(#SVGID_4_)" fill="#3A251E" d="M1127.858,799.986c0,15.503,12.568,28.071,28.071,28.071
		c15.503,0,28.072-12.568,28.072-28.071s-12.569-28.071-28.072-28.071C1140.426,771.915,1127.858,784.483,1127.858,799.986"/>
	<path clip-path="url(#SVGID_4_)" fill="#3A251E" d="M1111.031,828.058c0,15.503,12.567,28.071,28.071,28.071
		c15.503,0,28.072-12.568,28.072-28.071s-12.569-28.071-28.072-28.071C1123.598,799.986,1111.031,812.555,1111.031,828.058"/>
	<path clip-path="url(#SVGID_4_)" fill="#3A251E" d="M1118.489,756.841c0,5.692,4.614,10.307,10.307,10.307
		c5.692,0,10.306-4.614,10.306-10.307c0-5.691-4.614-10.307-10.306-10.307C1123.103,746.534,1118.489,751.149,1118.489,756.841"/>
	<path clip-path="url(#SVGID_4_)" fill="#6A89A5" d="M509.129,847.672l-6.543,15.688c-4.327,10.371,0.62,22.397,10.991,26.724
		l241.902,100.903c2.934,1.224,6.337-0.176,7.56-3.11l11.156-26.743c4.892-11.729-0.701-25.327-12.429-30.219L535.854,836.68
		C525.481,832.354,513.456,837.3,509.129,847.672"/>
	<path clip-path="url(#SVGID_4_)" fill="#6A89A5" d="M321.108,827.342L321.108,827.342c-2.12,13.729,7.291,26.577,21.02,28.697
		l175.268,27.065c13.729,2.12,26.577-7.29,28.697-21.02c2.12-13.729-7.291-26.577-21.02-28.697l-175.267-27.065
		C336.077,804.202,323.229,813.613,321.108,827.342"/>
	<path clip-path="url(#SVGID_4_)" fill="#84A9D1" d="M510.875,855.418l-6.543,15.688c-4.327,10.372,0.619,22.396,10.991,26.723
		l241.902,100.903c2.934,1.224,6.336-0.176,7.56-3.109l11.155-26.744c4.893-11.729-0.701-25.327-12.429-30.219l-225.912-94.233
		C527.227,840.101,515.201,845.047,510.875,855.418"/>
	<path clip-path="url(#SVGID_4_)" fill="#F2F2F2" d="M228.083,825.854c0.258,2.918,0.977,5.771,2.134,8.46
		c4.513,10.495,17.295,36.284,34.378,37.55l154.887,11.473l25.721,1.905c20.742,1.536,38.969-14.178,40.505-34.919L488,819.378
		c0.385-5.186-3.544-9.744-8.731-10.127l-20.687-1.331l-132.046-8.49c-5.683-0.365-11.115-2.483-15.545-6.063l-4.826-3.899
		c-6.828-5.517-10.617-13.957-10.203-22.726l0.854-18.053c0.466-9.875-4.395-19.243-12.738-24.547l-21.703-13.796
		c-4.551-2.894-9.851-4.387-15.243-4.296c-12.444,0.211-23.201,8.739-26.244,20.808l-6.831,27.092
		c-1.333,5.288-1.067,10.854,0.766,15.99l9.873,27.676c0.786,2.204,1.288,4.499,1.494,6.83L228.083,825.854z"/>
	
		<line clip-path="url(#SVGID_4_)" fill="none" stroke="#999999" stroke-miterlimit="10" x1="458.582" y1="807.92" x2="419.482" y2="883.337"/>
	
		<line clip-path="url(#SVGID_4_)" fill="none" stroke="#999999" stroke-miterlimit="10" x1="417.693" y1="805.291" x2="378.077" y2="880.27"/>
	<polyline clip-path="url(#SVGID_4_)" fill="none" stroke="#999999" stroke-miterlimit="10" points="358.071,801.458 
		346.671,824.07 320.488,876.004 	"/>
	
		<line clip-path="url(#SVGID_4_)" fill="none" stroke="#999999" stroke-miterlimit="10" x1="391.35" y1="855.148" x2="345.065" y2="826.529"/>
	
		<line clip-path="url(#SVGID_4_)" fill="none" stroke="#999999" stroke-miterlimit="10" x1="447.269" y1="829.741" x2="412.705" y2="814.732"/>
	
		<line clip-path="url(#SVGID_4_)" fill="none" stroke="#999999" stroke-miterlimit="10" x1="400.517" y1="837.8" x2="353.885" y2="809.763"/>
	
		<line clip-path="url(#SVGID_4_)" fill="none" stroke="#999999" stroke-miterlimit="10" x1="481.66" y1="864.724" x2="440.872" y2="842.078"/>
	
		<line clip-path="url(#SVGID_4_)" fill="none" stroke="#999999" stroke-miterlimit="10" x1="486.854" y1="834.862" x2="471.47" y2="859.066"/>
	
		<line clip-path="url(#SVGID_4_)" fill="none" stroke="#999999" stroke-miterlimit="10" x1="456.447" y1="850.726" x2="434.044" y2="884.415"/>
	
		<line clip-path="url(#SVGID_4_)" fill="none" stroke="#999999" stroke-miterlimit="10" x1="312.234" y1="794.313" x2="266.771" y2="872.025"/>
	
		<line clip-path="url(#SVGID_4_)" fill="none" stroke="#999999" stroke-miterlimit="10" x1="336.612" y1="844.023" x2="298.063" y2="818.535"/>
	
		<line clip-path="url(#SVGID_4_)" fill="none" stroke="#999999" stroke-miterlimit="10" x1="285.283" y1="840.381" x2="223.784" y2="795.06"/>
	
		<line clip-path="url(#SVGID_4_)" fill="none" stroke="#999999" stroke-miterlimit="10" x1="296.841" y1="775.046" x2="262.887" y2="823.204"/>
	
		<line clip-path="url(#SVGID_4_)" fill="none" stroke="#999999" stroke-miterlimit="10" x1="284.079" y1="724.142" x2="233.315" y2="799.894"/>
	
		<line clip-path="url(#SVGID_4_)" fill="none" stroke="#999999" stroke-miterlimit="10" x1="252.835" y1="816.469" x2="233.988" y2="842.323"/>
	
		<line clip-path="url(#SVGID_4_)" fill="none" stroke="#999999" stroke-miterlimit="10" x1="262.442" y1="756.429" x2="220.888" y2="726.857"/>
	
		<line clip-path="url(#SVGID_4_)" fill="none" stroke="#999999" stroke-miterlimit="10" x1="246.659" y1="779.981" x2="214.058" y2="753.949"/>
	
		<line clip-path="url(#SVGID_4_)" fill="none" stroke="#999999" stroke-miterlimit="10" x1="288.229" y1="787.262" x2="258.104" y2="762.901"/>
	<path clip-path="url(#SVGID_4_)" fill="#BCB269" d="M885.272,747.972L885.272,747.972c-7.453,8.411-6.668,21.391,1.743,28.844
		l101.618,90.038c8.411,7.452,21.39,6.668,28.844-1.743c7.453-8.411,6.669-21.391-1.744-28.844l-101.617-90.037
		C905.704,738.776,892.725,739.561,885.272,747.972"/>
	<path clip-path="url(#SVGID_4_)" fill="#84A9D1" d="M325.59,932.532l20.711,45.354c0.103,0.225,0.369,0.323,0.594,0.221
		l183.793-83.933c12.636-5.771,18.202-20.692,12.431-33.33c-5.771-12.636-20.693-18.201-33.329-12.431L325.59,932.532z"/>
	<path clip-path="url(#SVGID_4_)" fill="#EAE4A2" d="M727.787,932.248l26.555,63.841c1.086,2.609,5.308,3.548,9.424,2.07
		l228.062-81.88c36.959-13.269,62.952-40.178,55.177-58.866l-14.542-34.959c-7.774-18.69-45.182-19.226-80.649-2.368
		l-218.852,104.02C729.013,925.982,726.702,929.639,727.787,932.248"/>
	<path clip-path="url(#SVGID_4_)" fill="#84A9D1" d="M776.157,903.607l-43.066,20.469c-3.95,1.878-6.262,5.533-5.176,8.143
		l26.555,63.841c1.086,2.609,5.308,3.548,9.424,2.069l42.728-15.34"/>
	<path clip-path="url(#SVGID_4_)" fill="#EAE4A2" d="M985.527,1006.314L985.527,1006.314c11.752,1.814,22.853-6.314,24.668-18.068
		l20.357-131.827c1.816-11.754-6.315-22.854-18.068-24.668c-11.752-1.816-22.853,6.314-24.667,18.067l-20.358,131.828
		C965.644,993.399,973.775,1004.501,985.527,1006.314"/>
	<path clip-path="url(#SVGID_4_)" fill="#EAE4A2" d="M918.502,1130.215L918.502,1130.215c10.981,5.283,24.288,0.621,29.571-10.359
		l57.371-119.238c5.284-10.98,0.621-24.288-10.359-29.571c-10.981-5.283-24.288-0.622-29.571,10.359l-57.371,119.237
		C902.859,1111.624,907.521,1124.931,918.502,1130.215"/>
	<path clip-path="url(#SVGID_4_)" fill="#19100D" d="M1095.318,776.623c0,3.102,2.515,5.616,5.616,5.616
		c3.103,0,5.617-2.515,5.617-5.616c0-3.104-2.514-5.617-5.617-5.617C1097.833,771.006,1095.318,773.52,1095.318,776.623"/>
	<path clip-path="url(#SVGID_4_)" fill="#2D2929" d="M357.252,980.956L357.252,980.956c5.696-1.809,8.466-7.159,6.155-11.892
		l-7.755-15.879c-2.311-4.733-8.863-7.125-14.559-5.316c-5.696,1.808-8.466,7.159-6.155,11.892l7.755,15.88
		C345.004,980.372,351.556,982.765,357.252,980.956"/>
	<path clip-path="url(#SVGID_4_)" fill="#2D2929" d="M337.659,965.479c16.917-5.758,24.685-21.824,17.352-35.886
		c-7.333-14.061-26.992-20.792-43.908-15.034"/>
	<path clip-path="url(#SVGID_4_)" fill="none" stroke="#3A251E" stroke-width="3" stroke-miterlimit="10" d="M1069.559,778.406
		l0.927,1.136c3.296,4.036,5.095,9.087,5.095,14.297v0.63"/>
	<path clip-path="url(#SVGID_4_)" fill="#F7C7B5" d="M908.195,1139.688L908.195,1139.688c8.516,5.948,20.349,3.848,26.297-4.668
		l2.462-3.524c5.948-8.516,3.847-20.35-4.668-26.297c-8.515-5.948-20.349-3.848-26.297,4.668l-2.462,3.524
		C897.579,1121.906,899.68,1133.739,908.195,1139.688"/>
</g>
</svg>
